<?xml version="1.0" encoding="UTF-8" standalone="no"?><svg xmlns="http://www.w3.org/2000/svg" xmlns:xlink="http://www.w3.org/1999/xlink" contentScriptType="application/ecmascript" contentStyleType="text/css" height="645px" preserveAspectRatio="none" style="width:690px;height:645px;" version="1.1" viewBox="0 0 690 645" width="690px" zoomAndPan="magnify"><defs><filter height="300%" id="f1ax4pm96weqcl" width="300%" x="-1" y="-1"><feGaussianBlur result="blurOut" stdDeviation="2.0"/><feColorMatrix in="blurOut" result="blurOut2" type="matrix" values="0 0 0 0 0 0 0 0 0 0 0 0 0 0 0 0 0 0 .4 0"/><feOffset dx="4.0" dy="4.0" in="blurOut2" result="blurOut3"/><feBlend in="SourceGraphic" in2="blurOut3" mode="normal"/></filter></defs><g><!--MD5=[2ce0c9fb7f55b1e256ab28a8ea6b25ec]
class Customer--><rect codeLine="2" fill="#FEFECE" filter="url(#f1ax4pm96weqcl)" height="158.6875" id="Customer" style="stroke:#A80036;stroke-width:1.5;" width="190" x="31.5" y="7"/><ellipse cx="94.75" cy="23" fill="#ADD1B2" rx="11" ry="11" style="stroke:#A80036;stroke-width:1.0;"/><path d="M97.5156,18.875 Q97.6719,18.6563 97.8594,18.5469 Q98.0469,18.4375 98.2656,18.4375 Q98.6406,18.4375 98.875,18.7031 Q99.1094,18.9531 99.1094,19.5625 L99.1094,21.0156 Q99.1094,21.625 98.875,21.8906 Q98.6406,22.1563 98.2656,22.1563 Q97.9219,22.1563 97.7188,21.9531 Q97.5156,21.7656 97.4063,21.25 Q97.3594,20.8906 97.1719,20.7031 Q96.8438,20.3281 96.2344,20.1094 Q95.625,19.8906 95,19.8906 Q94.2344,19.8906 93.5938,20.2188 Q92.9688,20.5469 92.4688,21.2969 Q91.9844,22.0469 91.9844,23.0781 L91.9844,24.1719 Q91.9844,25.4063 92.875,26.2344 Q93.7656,27.0469 95.3594,27.0469 Q96.2969,27.0469 96.9531,26.7969 Q97.3438,26.6406 97.7656,26.2031 Q98.0313,25.9375 98.1719,25.8594 Q98.3281,25.7813 98.5313,25.7813 Q98.8594,25.7813 99.1094,26.0469 Q99.375,26.2969 99.375,26.6406 Q99.375,26.9844 99.0313,27.3906 Q98.5313,27.9688 97.7344,28.2969 Q96.6563,28.75 95.3594,28.75 Q93.8438,28.75 92.6406,28.125 Q91.6563,27.625 90.9688,26.5625 Q90.2813,25.4844 90.2813,24.2031 L90.2813,23.0469 Q90.2813,21.7188 90.8906,20.5781 Q91.5156,19.4219 92.6094,18.8125 Q93.7031,18.1875 94.9375,18.1875 Q95.6719,18.1875 96.3125,18.3594 Q96.9688,18.5156 97.5156,18.875 Z " fill="#000000"/><text fill="#000000" font-family="sans-serif" font-size="12" lengthAdjust="spacing" textLength="55" x="115.25" y="27.9102">Customer</text><line style="stroke:#A80036;stroke-width:1.5;" x1="32.5" x2="220.5" y1="39" y2="39"/><rect fill="none" height="6" style="stroke:#C82930;stroke-width:1.0;" width="6" x="39.5" y="47"/><text fill="#000000" font-family="sans-serif" font-size="11" lengthAdjust="spacing" textLength="60" x="51.5" y="54.4189">String name;</text><rect fill="none" height="6" style="stroke:#C82930;stroke-width:1.0;" width="6" x="39.5" y="60.8359"/><text fill="#000000" font-family="sans-serif" font-size="11" lengthAdjust="spacing" textLength="98" x="51.5" y="68.2549">List&lt;Rental&gt; rentals;</text><line style="stroke:#A80036;stroke-width:1.5;" x1="32.5" x2="220.5" y1="74.6719" y2="74.6719"/><ellipse cx="42.5" cy="85.6719" fill="#84BE84" rx="3" ry="3" style="stroke:#038048;stroke-width:1.0;"/><text fill="#000000" font-family="sans-serif" font-size="11" lengthAdjust="spacing" textLength="111" x="51.5" y="90.0908">Costumer(String name)</text><ellipse cx="42.5" cy="99.5078" fill="#84BE84" rx="3" ry="3" style="stroke:#038048;stroke-width:1.0;"/><text fill="#000000" font-family="sans-serif" font-size="11" lengthAdjust="spacing" textLength="139" x="51.5" y="103.9268">void addRental(Rental rental)</text><ellipse cx="42.5" cy="113.3438" fill="#84BE84" rx="3" ry="3" style="stroke:#038048;stroke-width:1.0;"/><text fill="#000000" font-family="sans-serif" font-size="11" lengthAdjust="spacing" textLength="81" x="51.5" y="117.7627">String getName()</text><ellipse cx="42.5" cy="127.1797" fill="#84BE84" rx="3" ry="3" style="stroke:#038048;stroke-width:1.0;"/><text fill="#000000" font-family="sans-serif" font-size="11" lengthAdjust="spacing" textLength="86" x="51.5" y="131.5986">String statement()</text><rect fill="#F24D5C" height="6" style="stroke:#C82930;stroke-width:1.0;" width="6" x="39.5" y="138.0156"/><text fill="#000000" font-family="sans-serif" font-size="11" lengthAdjust="spacing" textLength="116" x="51.5" y="145.4346">double getTotalCharge()</text><rect fill="#F24D5C" height="6" style="stroke:#C82930;stroke-width:1.0;" width="6" x="39.5" y="151.8516"/><text fill="#000000" font-family="sans-serif" font-size="11" lengthAdjust="spacing" textLength="164" x="51.5" y="159.2705">int getTotalFrequentRenterPoints()</text><!--MD5=[931c2459a5b1ef2b405e84c8dc93c38e]
class Rental--><rect codeLine="13" fill="#FEFECE" filter="url(#f1ax4pm96weqcl)" height="144.8516" id="Rental" style="stroke:#A80036;stroke-width:1.5;" width="201" x="26" y="226"/><ellipse cx="104.25" cy="242" fill="#ADD1B2" rx="11" ry="11" style="stroke:#A80036;stroke-width:1.0;"/><path d="M107.0156,237.875 Q107.1719,237.6563 107.3594,237.5469 Q107.5469,237.4375 107.7656,237.4375 Q108.1406,237.4375 108.375,237.7031 Q108.6094,237.9531 108.6094,238.5625 L108.6094,240.0156 Q108.6094,240.625 108.375,240.8906 Q108.1406,241.1563 107.7656,241.1563 Q107.4219,241.1563 107.2188,240.9531 Q107.0156,240.7656 106.9063,240.25 Q106.8594,239.8906 106.6719,239.7031 Q106.3438,239.3281 105.7344,239.1094 Q105.125,238.8906 104.5,238.8906 Q103.7344,238.8906 103.0938,239.2188 Q102.4688,239.5469 101.9688,240.2969 Q101.4844,241.0469 101.4844,242.0781 L101.4844,243.1719 Q101.4844,244.4063 102.375,245.2344 Q103.2656,246.0469 104.8594,246.0469 Q105.7969,246.0469 106.4531,245.7969 Q106.8438,245.6406 107.2656,245.2031 Q107.5313,244.9375 107.6719,244.8594 Q107.8281,244.7813 108.0313,244.7813 Q108.3594,244.7813 108.6094,245.0469 Q108.875,245.2969 108.875,245.6406 Q108.875,245.9844 108.5313,246.3906 Q108.0313,246.9688 107.2344,247.2969 Q106.1563,247.75 104.8594,247.75 Q103.3438,247.75 102.1406,247.125 Q101.1563,246.625 100.4688,245.5625 Q99.7813,244.4844 99.7813,243.2031 L99.7813,242.0469 Q99.7813,240.7188 100.3906,239.5781 Q101.0156,238.4219 102.1094,237.8125 Q103.2031,237.1875 104.4375,237.1875 Q105.1719,237.1875 105.8125,237.3594 Q106.4688,237.5156 107.0156,237.875 Z " fill="#000000"/><text fill="#000000" font-family="sans-serif" font-size="12" lengthAdjust="spacing" textLength="36" x="124.75" y="246.9102">Rental</text><line style="stroke:#A80036;stroke-width:1.5;" x1="27" x2="226" y1="258" y2="258"/><rect fill="none" height="6" style="stroke:#C82930;stroke-width:1.0;" width="6" x="34" y="266"/><text fill="#000000" font-family="sans-serif" font-size="11" lengthAdjust="spacing" textLength="62" x="46" y="273.4189">Movie movie;</text><rect fill="none" height="6" style="stroke:#C82930;stroke-width:1.0;" width="6" x="34" y="279.8359"/><text fill="#000000" font-family="sans-serif" font-size="11" lengthAdjust="spacing" textLength="75" x="46" y="287.2549">int daysRented;</text><line style="stroke:#A80036;stroke-width:1.5;" x1="27" x2="226" y1="293.6719" y2="293.6719"/><ellipse cx="37" cy="304.6719" fill="#84BE84" rx="3" ry="3" style="stroke:#038048;stroke-width:1.0;"/><text fill="#000000" font-family="sans-serif" font-size="11" lengthAdjust="spacing" textLength="175" x="46" y="309.0908">Rental(Movie movie, int daysRented)</text><ellipse cx="37" cy="318.5078" fill="#84BE84" rx="3" ry="3" style="stroke:#038048;stroke-width:1.0;"/><text fill="#000000" font-family="sans-serif" font-size="11" lengthAdjust="spacing" textLength="96" x="46" y="322.9268">int getDaysRented()</text><ellipse cx="37" cy="332.3438" fill="#84BE84" rx="3" ry="3" style="stroke:#038048;stroke-width:1.0;"/><text fill="#000000" font-family="sans-serif" font-size="11" lengthAdjust="spacing" textLength="82" x="46" y="336.7627">Movie getMovie()</text><ellipse cx="37" cy="346.1797" fill="#84BE84" rx="3" ry="3" style="stroke:#038048;stroke-width:1.0;"/><text fill="#000000" font-family="sans-serif" font-size="11" lengthAdjust="spacing" textLength="93" x="46" y="350.5986">double getCharge()</text><ellipse cx="37" cy="360.0156" fill="#84BE84" rx="3" ry="3" style="stroke:#038048;stroke-width:1.0;"/><text fill="#000000" font-family="sans-serif" font-size="11" lengthAdjust="spacing" textLength="141" x="46" y="364.4346">int getFrequentRenterPoints()</text><!--MD5=[e69084ab16b022bdbef99762ea85e9d6]
class Movie--><rect codeLine="23" fill="#FEFECE" filter="url(#f1ax4pm96weqcl)" height="200.1953" id="Movie" style="stroke:#A80036;stroke-width:1.5;" width="239" x="7" y="431"/><ellipse cx="106.75" cy="447" fill="#ADD1B2" rx="11" ry="11" style="stroke:#A80036;stroke-width:1.0;"/><path d="M109.5156,442.875 Q109.6719,442.6563 109.8594,442.5469 Q110.0469,442.4375 110.2656,442.4375 Q110.6406,442.4375 110.875,442.7031 Q111.1094,442.9531 111.1094,443.5625 L111.1094,445.0156 Q111.1094,445.625 110.875,445.8906 Q110.6406,446.1563 110.2656,446.1563 Q109.9219,446.1563 109.7188,445.9531 Q109.5156,445.7656 109.4063,445.25 Q109.3594,444.8906 109.1719,444.7031 Q108.8438,444.3281 108.2344,444.1094 Q107.625,443.8906 107,443.8906 Q106.2344,443.8906 105.5938,444.2188 Q104.9688,444.5469 104.4688,445.2969 Q103.9844,446.0469 103.9844,447.0781 L103.9844,448.1719 Q103.9844,449.4063 104.875,450.2344 Q105.7656,451.0469 107.3594,451.0469 Q108.2969,451.0469 108.9531,450.7969 Q109.3438,450.6406 109.7656,450.2031 Q110.0313,449.9375 110.1719,449.8594 Q110.3281,449.7813 110.5313,449.7813 Q110.8594,449.7813 111.1094,450.0469 Q111.375,450.2969 111.375,450.6406 Q111.375,450.9844 111.0313,451.3906 Q110.5313,451.9688 109.7344,452.2969 Q108.6563,452.75 107.3594,452.75 Q105.8438,452.75 104.6406,452.125 Q103.6563,451.625 102.9688,450.5625 Q102.2813,449.4844 102.2813,448.2031 L102.2813,447.0469 Q102.2813,445.7188 102.8906,444.5781 Q103.5156,443.4219 104.6094,442.8125 Q105.7031,442.1875 106.9375,442.1875 Q107.6719,442.1875 108.3125,442.3594 Q108.9688,442.5156 109.5156,442.875 Z " fill="#000000"/><text fill="#000000" font-family="sans-serif" font-size="12" lengthAdjust="spacing" textLength="31" x="127.25" y="451.9102">Movie</text><line style="stroke:#A80036;stroke-width:1.5;" x1="8" x2="245" y1="463" y2="463"/><ellipse cx="18" cy="474" fill="none" rx="3" ry="3" style="stroke:#038048;stroke-width:1.0;"/><text fill="#000000" font-family="sans-serif" font-size="11" lengthAdjust="spacing" textLength="136" x="27" y="478.4189">static final int REGULAR = 0;</text><ellipse cx="18" cy="487.8359" fill="none" rx="3" ry="3" style="stroke:#038048;stroke-width:1.0;"/><text fill="#000000" font-family="sans-serif" font-size="11" lengthAdjust="spacing" textLength="162" x="27" y="492.2549">static final int NEW_RELEASE = 1;</text><ellipse cx="18" cy="501.6719" fill="none" rx="3" ry="3" style="stroke:#038048;stroke-width:1.0;"/><text fill="#000000" font-family="sans-serif" font-size="11" lengthAdjust="spacing" textLength="143" x="27" y="506.0908">static final int CHILDRENS = 2;</text><rect fill="none" height="6" style="stroke:#C82930;stroke-width:1.0;" width="6" x="15" y="512.5078"/><text fill="#000000" font-family="sans-serif" font-size="11" lengthAdjust="spacing" textLength="50" x="27" y="519.9268">String title;</text><rect fill="none" height="6" style="stroke:#C82930;stroke-width:1.0;" width="6" x="15" y="526.3438"/><text fill="#000000" font-family="sans-serif" font-size="11" lengthAdjust="spacing" textLength="66" x="27" y="533.7627">int priceCode;</text><line style="stroke:#A80036;stroke-width:1.5;" x1="8" x2="245" y1="540.1797" y2="540.1797"/><ellipse cx="18" cy="551.1797" fill="#84BE84" rx="3" ry="3" style="stroke:#038048;stroke-width:1.0;"/><text fill="#000000" font-family="sans-serif" font-size="11" lengthAdjust="spacing" textLength="152" x="27" y="555.5986">Movie(String title, int priceCode)</text><ellipse cx="18" cy="565.0156" fill="#84BE84" rx="3" ry="3" style="stroke:#038048;stroke-width:1.0;"/><text fill="#000000" font-family="sans-serif" font-size="11" lengthAdjust="spacing" textLength="165" x="27" y="569.4346">double getCharge(int daysRented)</text><ellipse cx="18" cy="578.8516" fill="#84BE84" rx="3" ry="3" style="stroke:#038048;stroke-width:1.0;"/><text fill="#000000" font-family="sans-serif" font-size="11" lengthAdjust="spacing" textLength="213" x="27" y="583.2705">int getFrequentRenterPoints(int daysRented)</text><ellipse cx="18" cy="592.6875" fill="#84BE84" rx="3" ry="3" style="stroke:#038048;stroke-width:1.0;"/><text fill="#000000" font-family="sans-serif" font-size="11" lengthAdjust="spacing" textLength="86" x="27" y="597.1064">int getPriceCode()</text><ellipse cx="18" cy="606.5234" fill="#84BE84" rx="3" ry="3" style="stroke:#038048;stroke-width:1.0;"/><text fill="#000000" font-family="sans-serif" font-size="11" lengthAdjust="spacing" textLength="158" x="27" y="610.9424">void setPriceCode(int priceCode)</text><ellipse cx="18" cy="620.3594" fill="#84BE84" rx="3" ry="3" style="stroke:#038048;stroke-width:1.0;"/><text fill="#000000" font-family="sans-serif" font-size="11" lengthAdjust="spacing" textLength="73" x="27" y="624.7783">String getTitle()</text><!--MD5=[a40a7ac4b423335b0d34bf16cf36e547]
class Price--><rect codeLine="37" fill="#FEFECE" filter="url(#f1ax4pm96weqcl)" height="48" id="Price" style="stroke:#A80036;stroke-width:1.5;" width="60" x="425.5" y="62.5"/><ellipse cx="440.5" cy="78.5" fill="#ADD1B2" rx="11" ry="11" style="stroke:#A80036;stroke-width:1.0;"/><path d="M443.2656,74.375 Q443.4219,74.1563 443.6094,74.0469 Q443.7969,73.9375 444.0156,73.9375 Q444.3906,73.9375 444.625,74.2031 Q444.8594,74.4531 444.8594,75.0625 L444.8594,76.5156 Q444.8594,77.125 444.625,77.3906 Q444.3906,77.6563 444.0156,77.6563 Q443.6719,77.6563 443.4688,77.4531 Q443.2656,77.2656 443.1563,76.75 Q443.1094,76.3906 442.9219,76.2031 Q442.5938,75.8281 441.9844,75.6094 Q441.375,75.3906 440.75,75.3906 Q439.9844,75.3906 439.3438,75.7188 Q438.7188,76.0469 438.2188,76.7969 Q437.7344,77.5469 437.7344,78.5781 L437.7344,79.6719 Q437.7344,80.9063 438.625,81.7344 Q439.5156,82.5469 441.1094,82.5469 Q442.0469,82.5469 442.7031,82.2969 Q443.0938,82.1406 443.5156,81.7031 Q443.7813,81.4375 443.9219,81.3594 Q444.0781,81.2813 444.2813,81.2813 Q444.6094,81.2813 444.8594,81.5469 Q445.125,81.7969 445.125,82.1406 Q445.125,82.4844 444.7813,82.8906 Q444.2813,83.4688 443.4844,83.7969 Q442.4063,84.25 441.1094,84.25 Q439.5938,84.25 438.3906,83.625 Q437.4063,83.125 436.7188,82.0625 Q436.0313,80.9844 436.0313,79.7031 L436.0313,78.5469 Q436.0313,77.2188 436.6406,76.0781 Q437.2656,74.9219 438.3594,74.3125 Q439.4531,73.6875 440.6875,73.6875 Q441.4219,73.6875 442.0625,73.8594 Q442.7188,74.0156 443.2656,74.375 Z " fill="#000000"/><text fill="#000000" font-family="sans-serif" font-size="12" lengthAdjust="spacing" textLength="28" x="454.5" y="83.4102">Price</text><line style="stroke:#A80036;stroke-width:1.5;" x1="426.5" x2="484.5" y1="94.5" y2="94.5"/><line style="stroke:#A80036;stroke-width:1.5;" x1="426.5" x2="484.5" y1="102.5" y2="102.5"/><!--MD5=[2344beb72bdbdd7f341ff0709d123f49]
class RegularPrice--><rect codeLine="38" fill="#FEFECE" filter="url(#f1ax4pm96weqcl)" height="61.8359" id="RegularPrice" style="stroke:#A80036;stroke-width:1.5;" width="104" x="262.5" y="267.5"/><ellipse cx="277.5" cy="283.5" fill="#ADD1B2" rx="11" ry="11" style="stroke:#A80036;stroke-width:1.0;"/><path d="M280.2656,279.375 Q280.4219,279.1563 280.6094,279.0469 Q280.7969,278.9375 281.0156,278.9375 Q281.3906,278.9375 281.625,279.2031 Q281.8594,279.4531 281.8594,280.0625 L281.8594,281.5156 Q281.8594,282.125 281.625,282.3906 Q281.3906,282.6563 281.0156,282.6563 Q280.6719,282.6563 280.4688,282.4531 Q280.2656,282.2656 280.1563,281.75 Q280.1094,281.3906 279.9219,281.2031 Q279.5938,280.8281 278.9844,280.6094 Q278.375,280.3906 277.75,280.3906 Q276.9844,280.3906 276.3438,280.7188 Q275.7188,281.0469 275.2188,281.7969 Q274.7344,282.5469 274.7344,283.5781 L274.7344,284.6719 Q274.7344,285.9063 275.625,286.7344 Q276.5156,287.5469 278.1094,287.5469 Q279.0469,287.5469 279.7031,287.2969 Q280.0938,287.1406 280.5156,286.7031 Q280.7813,286.4375 280.9219,286.3594 Q281.0781,286.2813 281.2813,286.2813 Q281.6094,286.2813 281.8594,286.5469 Q282.125,286.7969 282.125,287.1406 Q282.125,287.4844 281.7813,287.8906 Q281.2813,288.4688 280.4844,288.7969 Q279.4063,289.25 278.1094,289.25 Q276.5938,289.25 275.3906,288.625 Q274.4063,288.125 273.7188,287.0625 Q273.0313,285.9844 273.0313,284.7031 L273.0313,283.5469 Q273.0313,282.2188 273.6406,281.0781 Q274.2656,279.9219 275.3594,279.3125 Q276.4531,278.6875 277.6875,278.6875 Q278.4219,278.6875 279.0625,278.8594 Q279.7188,279.0156 280.2656,279.375 Z " fill="#000000"/><text fill="#000000" font-family="sans-serif" font-size="12" lengthAdjust="spacing" textLength="72" x="291.5" y="288.4102">RegularPrice</text><line style="stroke:#A80036;stroke-width:1.5;" x1="263.5" x2="365.5" y1="299.5" y2="299.5"/><line style="stroke:#A80036;stroke-width:1.5;" x1="263.5" x2="365.5" y1="307.5" y2="307.5"/><text fill="#000000" font-family="sans-serif" font-size="11" lengthAdjust="spacing" textLength="86" x="268.5" y="322.9189">int getPriceCode()</text><!--MD5=[4d6c3fd5e1ff06fac9813d8657dd86db]
class ChildrenPrice--><rect codeLine="41" fill="#FEFECE" filter="url(#f1ax4pm96weqcl)" height="61.8359" id="ChildrenPrice" style="stroke:#A80036;stroke-width:1.5;" width="107" x="402" y="267.5"/><ellipse cx="417" cy="283.5" fill="#ADD1B2" rx="11" ry="11" style="stroke:#A80036;stroke-width:1.0;"/><path d="M419.7656,279.375 Q419.9219,279.1563 420.1094,279.0469 Q420.2969,278.9375 420.5156,278.9375 Q420.8906,278.9375 421.125,279.2031 Q421.3594,279.4531 421.3594,280.0625 L421.3594,281.5156 Q421.3594,282.125 421.125,282.3906 Q420.8906,282.6563 420.5156,282.6563 Q420.1719,282.6563 419.9688,282.4531 Q419.7656,282.2656 419.6563,281.75 Q419.6094,281.3906 419.4219,281.2031 Q419.0938,280.8281 418.4844,280.6094 Q417.875,280.3906 417.25,280.3906 Q416.4844,280.3906 415.8438,280.7188 Q415.2188,281.0469 414.7188,281.7969 Q414.2344,282.5469 414.2344,283.5781 L414.2344,284.6719 Q414.2344,285.9063 415.125,286.7344 Q416.0156,287.5469 417.6094,287.5469 Q418.5469,287.5469 419.2031,287.2969 Q419.5938,287.1406 420.0156,286.7031 Q420.2813,286.4375 420.4219,286.3594 Q420.5781,286.2813 420.7813,286.2813 Q421.1094,286.2813 421.3594,286.5469 Q421.625,286.7969 421.625,287.1406 Q421.625,287.4844 421.2813,287.8906 Q420.7813,288.4688 419.9844,288.7969 Q418.9063,289.25 417.6094,289.25 Q416.0938,289.25 414.8906,288.625 Q413.9063,288.125 413.2188,287.0625 Q412.5313,285.9844 412.5313,284.7031 L412.5313,283.5469 Q412.5313,282.2188 413.1406,281.0781 Q413.7656,279.9219 414.8594,279.3125 Q415.9531,278.6875 417.1875,278.6875 Q417.9219,278.6875 418.5625,278.8594 Q419.2188,279.0156 419.7656,279.375 Z " fill="#000000"/><text fill="#000000" font-family="sans-serif" font-size="12" lengthAdjust="spacing" textLength="75" x="431" y="288.4102">ChildrenPrice</text><line style="stroke:#A80036;stroke-width:1.5;" x1="403" x2="508" y1="299.5" y2="299.5"/><line style="stroke:#A80036;stroke-width:1.5;" x1="403" x2="508" y1="307.5" y2="307.5"/><text fill="#000000" font-family="sans-serif" font-size="11" lengthAdjust="spacing" textLength="86" x="408" y="322.9189">int getPriceCode()</text><!--MD5=[b47ebc111c8d62c1ab4e3accd85c4dbd]
class NewReleasePrice--><rect codeLine="44" fill="#FEFECE" filter="url(#f1ax4pm96weqcl)" height="61.8359" id="NewReleasePrice" style="stroke:#A80036;stroke-width:1.5;" width="132" x="544.5" y="267.5"/><ellipse cx="559.5" cy="283.5" fill="#ADD1B2" rx="11" ry="11" style="stroke:#A80036;stroke-width:1.0;"/><path d="M562.2656,279.375 Q562.4219,279.1563 562.6094,279.0469 Q562.7969,278.9375 563.0156,278.9375 Q563.3906,278.9375 563.625,279.2031 Q563.8594,279.4531 563.8594,280.0625 L563.8594,281.5156 Q563.8594,282.125 563.625,282.3906 Q563.3906,282.6563 563.0156,282.6563 Q562.6719,282.6563 562.4688,282.4531 Q562.2656,282.2656 562.1563,281.75 Q562.1094,281.3906 561.9219,281.2031 Q561.5938,280.8281 560.9844,280.6094 Q560.375,280.3906 559.75,280.3906 Q558.9844,280.3906 558.3438,280.7188 Q557.7188,281.0469 557.2188,281.7969 Q556.7344,282.5469 556.7344,283.5781 L556.7344,284.6719 Q556.7344,285.9063 557.625,286.7344 Q558.5156,287.5469 560.1094,287.5469 Q561.0469,287.5469 561.7031,287.2969 Q562.0938,287.1406 562.5156,286.7031 Q562.7813,286.4375 562.9219,286.3594 Q563.0781,286.2813 563.2813,286.2813 Q563.6094,286.2813 563.8594,286.5469 Q564.125,286.7969 564.125,287.1406 Q564.125,287.4844 563.7813,287.8906 Q563.2813,288.4688 562.4844,288.7969 Q561.4063,289.25 560.1094,289.25 Q558.5938,289.25 557.3906,288.625 Q556.4063,288.125 555.7188,287.0625 Q555.0313,285.9844 555.0313,284.7031 L555.0313,283.5469 Q555.0313,282.2188 555.6406,281.0781 Q556.2656,279.9219 557.3594,279.3125 Q558.4531,278.6875 559.6875,278.6875 Q560.4219,278.6875 561.0625,278.8594 Q561.7188,279.0156 562.2656,279.375 Z " fill="#000000"/><text fill="#000000" font-family="sans-serif" font-size="12" lengthAdjust="spacing" textLength="100" x="573.5" y="288.4102">NewReleasePrice</text><line style="stroke:#A80036;stroke-width:1.5;" x1="545.5" x2="675.5" y1="299.5" y2="299.5"/><line style="stroke:#A80036;stroke-width:1.5;" x1="545.5" x2="675.5" y1="307.5" y2="307.5"/><text fill="#000000" font-family="sans-serif" font-size="11" lengthAdjust="spacing" textLength="86" x="550.5" y="322.9189">int getPriceCode()</text><!--MD5=[f3878efad70c05db3650d422c897e41d]
link Customer to Rental--><path codeLine="48" d="M126.5,178.29 C126.5,178.29 126.5,201.92 126.5,212.8 " fill="none" id="Customer-Rental" style="stroke:#A80036;stroke-width:1.0;"/><polygon fill="#A80036" points="126.5,225.88,130.5,216.88,126.5,220.88,122.5,216.88,126.5,225.88" style="stroke:#A80036;stroke-width:1.0;"/><line style="stroke:#A80036;stroke-width:1.0;" x1="126.5" x2="126.5" y1="220.88" y2="212.88"/><polygon fill="#FFFFFF" points="126.5,166.29,122.5,172.29,126.5,178.29,130.5,172.29,126.5,166.29" style="stroke:#A80036;stroke-width:1.0;"/><!--MD5=[3ff2e791b45c1345dae11c9928fff133]
link Rental to Movie--><path codeLine="49" d="M126.5,371.17 C126.5,388.44 126.5,407.25 126.5,425.68 " fill="none" id="Rental-to-Movie" style="stroke:#A80036;stroke-width:1.0;"/><polygon fill="#A80036" points="126.5,430.87,130.5,421.87,126.5,425.87,122.5,421.87,126.5,430.87" style="stroke:#A80036;stroke-width:1.0;"/><!--MD5=[85989d059ac8b4a74bbb6cc6bd724fbd]
reverse link Price to RegularPrice--><path codeLine="51" d="M428.6,127.57 C401.23,168.33 359.42,230.6 334.74,267.36 " fill="none" id="Price-backto-RegularPrice" style="stroke:#A80036;stroke-width:1.0;"/><polygon fill="none" points="422.91,123.48,439.87,110.78,434.53,131.28,422.91,123.48" style="stroke:#A80036;stroke-width:1.0;"/><!--MD5=[d9b14c662436a044e1d358e07c9ccaad]
reverse link Price to ChildrenPrice--><path codeLine="52" d="M455.5,130.91 C455.5,171.67 455.5,231.59 455.5,267.36 " fill="none" id="Price-backto-ChildrenPrice" style="stroke:#A80036;stroke-width:1.0;"/><polygon fill="none" points="448.5,130.78,455.5,110.78,462.5,130.78,448.5,130.78" style="stroke:#A80036;stroke-width:1.0;"/><!--MD5=[7c030624453ab1086e12de251d16fa87]
reverse link Price to NewReleasePrice--><path codeLine="53" d="M484.67,127.02 C514.75,167.77 561,230.43 588.25,267.36 " fill="none" id="Price-backto-NewReleasePrice" style="stroke:#A80036;stroke-width:1.0;"/><polygon fill="none" points="478.92,131.02,472.68,110.78,490.19,122.71,478.92,131.02" style="stroke:#A80036;stroke-width:1.0;"/><!--MD5=[ac50a9a740baac87c517f9731428370e]
@startuml movies

class Customer {
- String name;
- List<Rental> rentals;
+ Costumer(String name) 
+ void addRental(Rental rental)
+ String getName()
+ String statement()
- double getTotalCharge()
- int getTotalFrequentRenterPoints()
}

class Rental {
- Movie movie;
- int daysRented;
+ Rental(Movie movie, int daysRented)
+ int getDaysRented()
+ Movie getMovie()
+ double getCharge()
+ int getFrequentRenterPoints()
}

class Movie {
+ static final int REGULAR = 0;
+ static final int NEW_RELEASE = 1;
+ static final int CHILDRENS = 2;
- String title;
- int priceCode;
+ Movie(String title, int priceCode)
+ double getCharge(int daysRented)
+ int getFrequentRenterPoints(int daysRented)
+ int getPriceCode()
+ void setPriceCode(int priceCode)
+ String getTitle()
}

class Price
class RegularPrice {
int getPriceCode()
}
class ChildrenPrice {
int getPriceCode()
}
class NewReleasePrice {
int getPriceCode()
}

Customer o-down-> Rental
Rental -down-> Movie

Price <|-down- RegularPrice
Price <|-down- ChildrenPrice
Price <|-down- NewReleasePrice

@enduml

PlantUML version 1.2021.00(Sun Jan 10 11:25:05 CET 2021)
(GPL source distribution)
Java Runtime: OpenJDK Runtime Environment
JVM: OpenJDK 64-Bit Server VM
Default Encoding: Cp1252
Language: es
Country: ES
--></g></svg>