<?xml version="1.0" encoding="UTF-8" standalone="no"?><svg xmlns="http://www.w3.org/2000/svg" xmlns:xlink="http://www.w3.org/1999/xlink" contentScriptType="application/ecmascript" contentStyleType="text/css" height="575px" preserveAspectRatio="none" style="width:222px;height:575px;" version="1.1" viewBox="0 0 222 575" width="222px" zoomAndPan="magnify"><defs><filter height="300%" id="fflsgiby3o3yh" width="300%" x="-1" y="-1"><feGaussianBlur result="blurOut" stdDeviation="2.0"/><feColorMatrix in="blurOut" result="blurOut2" type="matrix" values="0 0 0 0 0 0 0 0 0 0 0 0 0 0 0 0 0 0 .4 0"/><feOffset dx="4.0" dy="4.0" in="blurOut2" result="blurOut3"/><feBlend in="SourceGraphic" in2="blurOut3" mode="normal"/></filter></defs><g><!--MD5=[2ce0c9fb7f55b1e256ab28a8ea6b25ec]
class Customer--><rect codeLine="2" fill="#FEFECE" filter="url(#fflsgiby3o3yh)" height="131.0156" id="Customer" style="stroke:#A80036;stroke-width:1.5;" width="165" x="25" y="7"/><ellipse cx="75.75" cy="23" fill="#ADD1B2" rx="11" ry="11" style="stroke:#A80036;stroke-width:1.0;"/><path d="M78.5156,18.875 Q78.6719,18.6563 78.8594,18.5469 Q79.0469,18.4375 79.2656,18.4375 Q79.6406,18.4375 79.875,18.7031 Q80.1094,18.9531 80.1094,19.5625 L80.1094,21.0156 Q80.1094,21.625 79.875,21.8906 Q79.6406,22.1563 79.2656,22.1563 Q78.9219,22.1563 78.7188,21.9531 Q78.5156,21.7656 78.4063,21.25 Q78.3594,20.8906 78.1719,20.7031 Q77.8438,20.3281 77.2344,20.1094 Q76.625,19.8906 76,19.8906 Q75.2344,19.8906 74.5938,20.2188 Q73.9688,20.5469 73.4688,21.2969 Q72.9844,22.0469 72.9844,23.0781 L72.9844,24.1719 Q72.9844,25.4063 73.875,26.2344 Q74.7656,27.0469 76.3594,27.0469 Q77.2969,27.0469 77.9531,26.7969 Q78.3438,26.6406 78.7656,26.2031 Q79.0313,25.9375 79.1719,25.8594 Q79.3281,25.7813 79.5313,25.7813 Q79.8594,25.7813 80.1094,26.0469 Q80.375,26.2969 80.375,26.6406 Q80.375,26.9844 80.0313,27.3906 Q79.5313,27.9688 78.7344,28.2969 Q77.6563,28.75 76.3594,28.75 Q74.8438,28.75 73.6406,28.125 Q72.6563,27.625 71.9688,26.5625 Q71.2813,25.4844 71.2813,24.2031 L71.2813,23.0469 Q71.2813,21.7188 71.8906,20.5781 Q72.5156,19.4219 73.6094,18.8125 Q74.7031,18.1875 75.9375,18.1875 Q76.6719,18.1875 77.3125,18.3594 Q77.9688,18.5156 78.5156,18.875 Z " fill="#000000"/><text fill="#000000" font-family="sans-serif" font-size="12" lengthAdjust="spacing" textLength="55" x="96.25" y="27.9102">Customer</text><line style="stroke:#A80036;stroke-width:1.5;" x1="26" x2="189" y1="39" y2="39"/><rect fill="none" height="6" style="stroke:#C82930;stroke-width:1.0;" width="6" x="33" y="47"/><text fill="#000000" font-family="sans-serif" font-size="11" lengthAdjust="spacing" textLength="60" x="45" y="54.4189">String name;</text><rect fill="none" height="6" style="stroke:#C82930;stroke-width:1.0;" width="6" x="33" y="60.8359"/><text fill="#000000" font-family="sans-serif" font-size="11" lengthAdjust="spacing" textLength="98" x="45" y="68.2549">List&lt;Rental&gt; rentals;</text><line style="stroke:#A80036;stroke-width:1.5;" x1="26" x2="189" y1="74.6719" y2="74.6719"/><ellipse cx="36" cy="85.6719" fill="#84BE84" rx="3" ry="3" style="stroke:#038048;stroke-width:1.0;"/><text fill="#000000" font-family="sans-serif" font-size="11" lengthAdjust="spacing" textLength="111" x="45" y="90.0908">Costumer(String name)</text><ellipse cx="36" cy="99.5078" fill="#84BE84" rx="3" ry="3" style="stroke:#038048;stroke-width:1.0;"/><text fill="#000000" font-family="sans-serif" font-size="11" lengthAdjust="spacing" textLength="139" x="45" y="103.9268">void addRental(Rental rental)</text><ellipse cx="36" cy="113.3438" fill="#84BE84" rx="3" ry="3" style="stroke:#038048;stroke-width:1.0;"/><text fill="#000000" font-family="sans-serif" font-size="11" lengthAdjust="spacing" textLength="81" x="45" y="117.7627">String getName()</text><ellipse cx="36" cy="127.1797" fill="#84BE84" rx="3" ry="3" style="stroke:#038048;stroke-width:1.0;"/><text fill="#000000" font-family="sans-serif" font-size="11" lengthAdjust="spacing" textLength="86" x="45" y="131.5986">String statement()</text><!--MD5=[931c2459a5b1ef2b405e84c8dc93c38e]
class Rental--><rect codeLine="11" fill="#FEFECE" filter="url(#fflsgiby3o3yh)" height="131.0156" id="Rental" style="stroke:#A80036;stroke-width:1.5;" width="201" x="7" y="198"/><ellipse cx="85.25" cy="214" fill="#ADD1B2" rx="11" ry="11" style="stroke:#A80036;stroke-width:1.0;"/><path d="M88.0156,209.875 Q88.1719,209.6563 88.3594,209.5469 Q88.5469,209.4375 88.7656,209.4375 Q89.1406,209.4375 89.375,209.7031 Q89.6094,209.9531 89.6094,210.5625 L89.6094,212.0156 Q89.6094,212.625 89.375,212.8906 Q89.1406,213.1563 88.7656,213.1563 Q88.4219,213.1563 88.2188,212.9531 Q88.0156,212.7656 87.9063,212.25 Q87.8594,211.8906 87.6719,211.7031 Q87.3438,211.3281 86.7344,211.1094 Q86.125,210.8906 85.5,210.8906 Q84.7344,210.8906 84.0938,211.2188 Q83.4688,211.5469 82.9688,212.2969 Q82.4844,213.0469 82.4844,214.0781 L82.4844,215.1719 Q82.4844,216.4063 83.375,217.2344 Q84.2656,218.0469 85.8594,218.0469 Q86.7969,218.0469 87.4531,217.7969 Q87.8438,217.6406 88.2656,217.2031 Q88.5313,216.9375 88.6719,216.8594 Q88.8281,216.7813 89.0313,216.7813 Q89.3594,216.7813 89.6094,217.0469 Q89.875,217.2969 89.875,217.6406 Q89.875,217.9844 89.5313,218.3906 Q89.0313,218.9688 88.2344,219.2969 Q87.1563,219.75 85.8594,219.75 Q84.3438,219.75 83.1406,219.125 Q82.1563,218.625 81.4688,217.5625 Q80.7813,216.4844 80.7813,215.2031 L80.7813,214.0469 Q80.7813,212.7188 81.3906,211.5781 Q82.0156,210.4219 83.1094,209.8125 Q84.2031,209.1875 85.4375,209.1875 Q86.1719,209.1875 86.8125,209.3594 Q87.4688,209.5156 88.0156,209.875 Z " fill="#000000"/><text fill="#000000" font-family="sans-serif" font-size="12" lengthAdjust="spacing" textLength="36" x="105.75" y="218.9102">Rental</text><line style="stroke:#A80036;stroke-width:1.5;" x1="8" x2="207" y1="230" y2="230"/><rect fill="none" height="6" style="stroke:#C82930;stroke-width:1.0;" width="6" x="15" y="238"/><text fill="#000000" font-family="sans-serif" font-size="11" lengthAdjust="spacing" textLength="62" x="27" y="245.4189">Movie movie;</text><rect fill="none" height="6" style="stroke:#C82930;stroke-width:1.0;" width="6" x="15" y="251.8359"/><text fill="#000000" font-family="sans-serif" font-size="11" lengthAdjust="spacing" textLength="75" x="27" y="259.2549">int daysRented;</text><line style="stroke:#A80036;stroke-width:1.5;" x1="8" x2="207" y1="265.6719" y2="265.6719"/><ellipse cx="18" cy="276.6719" fill="#84BE84" rx="3" ry="3" style="stroke:#038048;stroke-width:1.0;"/><text fill="#000000" font-family="sans-serif" font-size="11" lengthAdjust="spacing" textLength="175" x="27" y="281.0908">Rental(Movie movie, int daysRented)</text><ellipse cx="18" cy="290.5078" fill="#84BE84" rx="3" ry="3" style="stroke:#038048;stroke-width:1.0;"/><text fill="#000000" font-family="sans-serif" font-size="11" lengthAdjust="spacing" textLength="96" x="27" y="294.9268">int getDaysRented()</text><ellipse cx="18" cy="304.3438" fill="#84BE84" rx="3" ry="3" style="stroke:#038048;stroke-width:1.0;"/><text fill="#000000" font-family="sans-serif" font-size="11" lengthAdjust="spacing" textLength="82" x="27" y="308.7627">Movie getMovie()</text><ellipse cx="18" cy="318.1797" fill="#84BE84" rx="3" ry="3" style="stroke:#038048;stroke-width:1.0;"/><text fill="#000000" font-family="sans-serif" font-size="11" lengthAdjust="spacing" textLength="93" x="27" y="322.5986">double getCharge()</text><!--MD5=[e69084ab16b022bdbef99762ea85e9d6]
class Movie--><rect codeLine="20" fill="#FEFECE" filter="url(#fflsgiby3o3yh)" height="172.5234" id="Movie" style="stroke:#A80036;stroke-width:1.5;" width="191" x="12" y="389"/><ellipse cx="87.75" cy="405" fill="#ADD1B2" rx="11" ry="11" style="stroke:#A80036;stroke-width:1.0;"/><path d="M90.5156,400.875 Q90.6719,400.6563 90.8594,400.5469 Q91.0469,400.4375 91.2656,400.4375 Q91.6406,400.4375 91.875,400.7031 Q92.1094,400.9531 92.1094,401.5625 L92.1094,403.0156 Q92.1094,403.625 91.875,403.8906 Q91.6406,404.1563 91.2656,404.1563 Q90.9219,404.1563 90.7188,403.9531 Q90.5156,403.7656 90.4063,403.25 Q90.3594,402.8906 90.1719,402.7031 Q89.8438,402.3281 89.2344,402.1094 Q88.625,401.8906 88,401.8906 Q87.2344,401.8906 86.5938,402.2188 Q85.9688,402.5469 85.4688,403.2969 Q84.9844,404.0469 84.9844,405.0781 L84.9844,406.1719 Q84.9844,407.4063 85.875,408.2344 Q86.7656,409.0469 88.3594,409.0469 Q89.2969,409.0469 89.9531,408.7969 Q90.3438,408.6406 90.7656,408.2031 Q91.0313,407.9375 91.1719,407.8594 Q91.3281,407.7813 91.5313,407.7813 Q91.8594,407.7813 92.1094,408.0469 Q92.375,408.2969 92.375,408.6406 Q92.375,408.9844 92.0313,409.3906 Q91.5313,409.9688 90.7344,410.2969 Q89.6563,410.75 88.3594,410.75 Q86.8438,410.75 85.6406,410.125 Q84.6563,409.625 83.9688,408.5625 Q83.2813,407.4844 83.2813,406.2031 L83.2813,405.0469 Q83.2813,403.7188 83.8906,402.5781 Q84.5156,401.4219 85.6094,400.8125 Q86.7031,400.1875 87.9375,400.1875 Q88.6719,400.1875 89.3125,400.3594 Q89.9688,400.5156 90.5156,400.875 Z " fill="#000000"/><text fill="#000000" font-family="sans-serif" font-size="12" lengthAdjust="spacing" textLength="31" x="108.25" y="409.9102">Movie</text><line style="stroke:#A80036;stroke-width:1.5;" x1="13" x2="202" y1="421" y2="421"/><ellipse cx="23" cy="432" fill="none" rx="3" ry="3" style="stroke:#038048;stroke-width:1.0;"/><text fill="#000000" font-family="sans-serif" font-size="11" lengthAdjust="spacing" textLength="136" x="32" y="436.4189">static final int REGULAR = 0;</text><ellipse cx="23" cy="445.8359" fill="none" rx="3" ry="3" style="stroke:#038048;stroke-width:1.0;"/><text fill="#000000" font-family="sans-serif" font-size="11" lengthAdjust="spacing" textLength="165" x="32" y="450.2549">static final int NEW _RELEASE = 1;</text><ellipse cx="23" cy="459.6719" fill="none" rx="3" ry="3" style="stroke:#038048;stroke-width:1.0;"/><text fill="#000000" font-family="sans-serif" font-size="11" lengthAdjust="spacing" textLength="143" x="32" y="464.0908">static final int CHILDRENS = 2;</text><rect fill="none" height="6" style="stroke:#C82930;stroke-width:1.0;" width="6" x="20" y="470.5078"/><text fill="#000000" font-family="sans-serif" font-size="11" lengthAdjust="spacing" textLength="50" x="32" y="477.9268">String title;</text><rect fill="none" height="6" style="stroke:#C82930;stroke-width:1.0;" width="6" x="20" y="484.3438"/><text fill="#000000" font-family="sans-serif" font-size="11" lengthAdjust="spacing" textLength="66" x="32" y="491.7627">int priceCode;</text><line style="stroke:#A80036;stroke-width:1.5;" x1="13" x2="202" y1="498.1797" y2="498.1797"/><ellipse cx="23" cy="509.1797" fill="#84BE84" rx="3" ry="3" style="stroke:#038048;stroke-width:1.0;"/><text fill="#000000" font-family="sans-serif" font-size="11" lengthAdjust="spacing" textLength="152" x="32" y="513.5986">Movie(String title, int priceCode)</text><ellipse cx="23" cy="523.0156" fill="#84BE84" rx="3" ry="3" style="stroke:#038048;stroke-width:1.0;"/><text fill="#000000" font-family="sans-serif" font-size="11" lengthAdjust="spacing" textLength="86" x="32" y="527.4346">int getPriceCode()</text><ellipse cx="23" cy="536.8516" fill="#84BE84" rx="3" ry="3" style="stroke:#038048;stroke-width:1.0;"/><text fill="#000000" font-family="sans-serif" font-size="11" lengthAdjust="spacing" textLength="158" x="32" y="541.2705">void setPriceCode(int priceCode)</text><ellipse cx="23" cy="550.6875" fill="#84BE84" rx="3" ry="3" style="stroke:#038048;stroke-width:1.0;"/><text fill="#000000" font-family="sans-serif" font-size="11" lengthAdjust="spacing" textLength="73" x="32" y="555.1064">String getTitle()</text><!--MD5=[f3878efad70c05db3650d422c897e41d]
link Customer to Rental--><path codeLine="32" d="M107.5,150.01 C107.5,150.01 107.5,173.73 107.5,184.73 " fill="none" id="Customer-Rental" style="stroke:#A80036;stroke-width:1.0;"/><polygon fill="#A80036" points="107.5,197.96,111.5,188.96,107.5,192.96,103.5,188.96,107.5,197.96" style="stroke:#A80036;stroke-width:1.0;"/><line style="stroke:#A80036;stroke-width:1.0;" x1="107.5" x2="107.5" y1="192.96" y2="184.96"/><polygon fill="#FFFFFF" points="107.5,138.01,103.5,144.01,107.5,150.01,111.5,144.01,107.5,138.01" style="stroke:#A80036;stroke-width:1.0;"/><!--MD5=[3ff2e791b45c1345dae11c9928fff133]
link Rental to Movie--><path codeLine="33" d="M107.5,329.22 C107.5,346.4 107.5,365.29 107.5,383.59 " fill="none" id="Rental-to-Movie" style="stroke:#A80036;stroke-width:1.0;"/><polygon fill="#A80036" points="107.5,388.73,111.5,379.73,107.5,383.73,103.5,379.73,107.5,388.73" style="stroke:#A80036;stroke-width:1.0;"/><!--MD5=[8faf007d2e60dfd7e585435151dd7248]
@startuml movies

class Customer {
- String name;
- List<Rental> rentals;
+ Costumer(String name) 
+ void addRental(Rental rental)
+ String getName()
+ String statement()
}

class Rental {
- Movie movie;
- int daysRented;
+ Rental(Movie movie, int daysRented)
+ int getDaysRented()
+ Movie getMovie()
+ double getCharge()
}

class Movie {
+ static final int REGULAR = 0;
+ static final int NEW _RELEASE = 1;
+ static final int CHILDRENS = 2;
- String title;
- int priceCode;
+ Movie(String title, int priceCode)
+ int getPriceCode()
+ void setPriceCode(int priceCode)
+ String getTitle()
}

Customer o-down-> Rental
Rental -down-> Movie

@enduml

PlantUML version 1.2021.00(Sun Jan 10 11:25:05 CET 2021)
(GPL source distribution)
Java Runtime: OpenJDK Runtime Environment
JVM: OpenJDK 64-Bit Server VM
Default Encoding: Cp1252
Language: es
Country: ES
--></g></svg>