<?xml version="1.0" encoding="UTF-8" standalone="no"?><svg xmlns="http://www.w3.org/2000/svg" xmlns:xlink="http://www.w3.org/1999/xlink" contentScriptType="application/ecmascript" contentStyleType="text/css" height="930px" preserveAspectRatio="none" style="width:712px;height:930px;" version="1.1" viewBox="0 0 712 930" width="712px" zoomAndPan="magnify"><defs><filter height="300%" id="fz4d95ph1lyfv" width="300%" x="-1" y="-1"><feGaussianBlur result="blurOut" stdDeviation="2.0"/><feColorMatrix in="blurOut" result="blurOut2" type="matrix" values="0 0 0 0 0 0 0 0 0 0 0 0 0 0 0 0 0 0 .4 0"/><feOffset dx="4.0" dy="4.0" in="blurOut2" result="blurOut3"/><feBlend in="SourceGraphic" in2="blurOut3" mode="normal"/></filter></defs><g><!--MD5=[2ce0c9fb7f55b1e256ab28a8ea6b25ec]
class Customer--><rect codeLine="2" fill="#FEFECE" filter="url(#fz4d95ph1lyfv)" height="158.6875" id="Customer" style="stroke:#A80036;stroke-width:1.5;" width="190" x="233.5" y="7"/><ellipse cx="296.75" cy="23" fill="#ADD1B2" rx="11" ry="11" style="stroke:#A80036;stroke-width:1.0;"/><path d="M299.5156,18.875 Q299.6719,18.6563 299.8594,18.5469 Q300.0469,18.4375 300.2656,18.4375 Q300.6406,18.4375 300.875,18.7031 Q301.1094,18.9531 301.1094,19.5625 L301.1094,21.0156 Q301.1094,21.625 300.875,21.8906 Q300.6406,22.1563 300.2656,22.1563 Q299.9219,22.1563 299.7188,21.9531 Q299.5156,21.7656 299.4063,21.25 Q299.3594,20.8906 299.1719,20.7031 Q298.8438,20.3281 298.2344,20.1094 Q297.625,19.8906 297,19.8906 Q296.2344,19.8906 295.5938,20.2188 Q294.9688,20.5469 294.4688,21.2969 Q293.9844,22.0469 293.9844,23.0781 L293.9844,24.1719 Q293.9844,25.4063 294.875,26.2344 Q295.7656,27.0469 297.3594,27.0469 Q298.2969,27.0469 298.9531,26.7969 Q299.3438,26.6406 299.7656,26.2031 Q300.0313,25.9375 300.1719,25.8594 Q300.3281,25.7813 300.5313,25.7813 Q300.8594,25.7813 301.1094,26.0469 Q301.375,26.2969 301.375,26.6406 Q301.375,26.9844 301.0313,27.3906 Q300.5313,27.9688 299.7344,28.2969 Q298.6563,28.75 297.3594,28.75 Q295.8438,28.75 294.6406,28.125 Q293.6563,27.625 292.9688,26.5625 Q292.2813,25.4844 292.2813,24.2031 L292.2813,23.0469 Q292.2813,21.7188 292.8906,20.5781 Q293.5156,19.4219 294.6094,18.8125 Q295.7031,18.1875 296.9375,18.1875 Q297.6719,18.1875 298.3125,18.3594 Q298.9688,18.5156 299.5156,18.875 Z " fill="#000000"/><text fill="#000000" font-family="sans-serif" font-size="12" lengthAdjust="spacing" textLength="55" x="317.25" y="27.9102">Customer</text><line style="stroke:#A80036;stroke-width:1.5;" x1="234.5" x2="422.5" y1="39" y2="39"/><rect fill="none" height="6" style="stroke:#C82930;stroke-width:1.0;" width="6" x="241.5" y="47"/><text fill="#000000" font-family="sans-serif" font-size="11" lengthAdjust="spacing" textLength="60" x="253.5" y="54.4189">String name;</text><rect fill="none" height="6" style="stroke:#C82930;stroke-width:1.0;" width="6" x="241.5" y="60.8359"/><text fill="#000000" font-family="sans-serif" font-size="11" lengthAdjust="spacing" textLength="98" x="253.5" y="68.2549">List&lt;Rental&gt; rentals;</text><line style="stroke:#A80036;stroke-width:1.5;" x1="234.5" x2="422.5" y1="74.6719" y2="74.6719"/><ellipse cx="244.5" cy="85.6719" fill="#84BE84" rx="3" ry="3" style="stroke:#038048;stroke-width:1.0;"/><text fill="#000000" font-family="sans-serif" font-size="11" lengthAdjust="spacing" textLength="111" x="253.5" y="90.0908">Costumer(String name)</text><ellipse cx="244.5" cy="99.5078" fill="#84BE84" rx="3" ry="3" style="stroke:#038048;stroke-width:1.0;"/><text fill="#000000" font-family="sans-serif" font-size="11" lengthAdjust="spacing" textLength="139" x="253.5" y="103.9268">void addRental(Rental rental)</text><ellipse cx="244.5" cy="113.3438" fill="#84BE84" rx="3" ry="3" style="stroke:#038048;stroke-width:1.0;"/><text fill="#000000" font-family="sans-serif" font-size="11" lengthAdjust="spacing" textLength="81" x="253.5" y="117.7627">String getName()</text><ellipse cx="244.5" cy="127.1797" fill="#84BE84" rx="3" ry="3" style="stroke:#038048;stroke-width:1.0;"/><text fill="#000000" font-family="sans-serif" font-size="11" lengthAdjust="spacing" textLength="86" x="253.5" y="131.5986">String statement()</text><rect fill="#F24D5C" height="6" style="stroke:#C82930;stroke-width:1.0;" width="6" x="241.5" y="138.0156"/><text fill="#000000" font-family="sans-serif" font-size="11" lengthAdjust="spacing" textLength="116" x="253.5" y="145.4346">double getTotalCharge()</text><rect fill="#F24D5C" height="6" style="stroke:#C82930;stroke-width:1.0;" width="6" x="241.5" y="151.8516"/><text fill="#000000" font-family="sans-serif" font-size="11" lengthAdjust="spacing" textLength="164" x="253.5" y="159.2705">int getTotalFrequentRenterPoints()</text><!--MD5=[931c2459a5b1ef2b405e84c8dc93c38e]
class Rental--><rect codeLine="13" fill="#FEFECE" filter="url(#fz4d95ph1lyfv)" height="144.8516" id="Rental" style="stroke:#A80036;stroke-width:1.5;" width="201" x="228" y="226"/><ellipse cx="306.25" cy="242" fill="#ADD1B2" rx="11" ry="11" style="stroke:#A80036;stroke-width:1.0;"/><path d="M309.0156,237.875 Q309.1719,237.6563 309.3594,237.5469 Q309.5469,237.4375 309.7656,237.4375 Q310.1406,237.4375 310.375,237.7031 Q310.6094,237.9531 310.6094,238.5625 L310.6094,240.0156 Q310.6094,240.625 310.375,240.8906 Q310.1406,241.1563 309.7656,241.1563 Q309.4219,241.1563 309.2188,240.9531 Q309.0156,240.7656 308.9063,240.25 Q308.8594,239.8906 308.6719,239.7031 Q308.3438,239.3281 307.7344,239.1094 Q307.125,238.8906 306.5,238.8906 Q305.7344,238.8906 305.0938,239.2188 Q304.4688,239.5469 303.9688,240.2969 Q303.4844,241.0469 303.4844,242.0781 L303.4844,243.1719 Q303.4844,244.4063 304.375,245.2344 Q305.2656,246.0469 306.8594,246.0469 Q307.7969,246.0469 308.4531,245.7969 Q308.8438,245.6406 309.2656,245.2031 Q309.5313,244.9375 309.6719,244.8594 Q309.8281,244.7813 310.0313,244.7813 Q310.3594,244.7813 310.6094,245.0469 Q310.875,245.2969 310.875,245.6406 Q310.875,245.9844 310.5313,246.3906 Q310.0313,246.9688 309.2344,247.2969 Q308.1563,247.75 306.8594,247.75 Q305.3438,247.75 304.1406,247.125 Q303.1563,246.625 302.4688,245.5625 Q301.7813,244.4844 301.7813,243.2031 L301.7813,242.0469 Q301.7813,240.7188 302.3906,239.5781 Q303.0156,238.4219 304.1094,237.8125 Q305.2031,237.1875 306.4375,237.1875 Q307.1719,237.1875 307.8125,237.3594 Q308.4688,237.5156 309.0156,237.875 Z " fill="#000000"/><text fill="#000000" font-family="sans-serif" font-size="12" lengthAdjust="spacing" textLength="36" x="326.75" y="246.9102">Rental</text><line style="stroke:#A80036;stroke-width:1.5;" x1="229" x2="428" y1="258" y2="258"/><rect fill="none" height="6" style="stroke:#C82930;stroke-width:1.0;" width="6" x="236" y="266"/><text fill="#000000" font-family="sans-serif" font-size="11" lengthAdjust="spacing" textLength="62" x="248" y="273.4189">Movie movie;</text><rect fill="none" height="6" style="stroke:#C82930;stroke-width:1.0;" width="6" x="236" y="279.8359"/><text fill="#000000" font-family="sans-serif" font-size="11" lengthAdjust="spacing" textLength="75" x="248" y="287.2549">int daysRented;</text><line style="stroke:#A80036;stroke-width:1.5;" x1="229" x2="428" y1="293.6719" y2="293.6719"/><ellipse cx="239" cy="304.6719" fill="#84BE84" rx="3" ry="3" style="stroke:#038048;stroke-width:1.0;"/><text fill="#000000" font-family="sans-serif" font-size="11" lengthAdjust="spacing" textLength="175" x="248" y="309.0908">Rental(Movie movie, int daysRented)</text><ellipse cx="239" cy="318.5078" fill="#84BE84" rx="3" ry="3" style="stroke:#038048;stroke-width:1.0;"/><text fill="#000000" font-family="sans-serif" font-size="11" lengthAdjust="spacing" textLength="96" x="248" y="322.9268">int getDaysRented()</text><ellipse cx="239" cy="332.3438" fill="#84BE84" rx="3" ry="3" style="stroke:#038048;stroke-width:1.0;"/><text fill="#000000" font-family="sans-serif" font-size="11" lengthAdjust="spacing" textLength="82" x="248" y="336.7627">Movie getMovie()</text><ellipse cx="239" cy="346.1797" fill="#84BE84" rx="3" ry="3" style="stroke:#038048;stroke-width:1.0;"/><text fill="#000000" font-family="sans-serif" font-size="11" lengthAdjust="spacing" textLength="93" x="248" y="350.5986">double getCharge()</text><ellipse cx="239" cy="360.0156" fill="#84BE84" rx="3" ry="3" style="stroke:#038048;stroke-width:1.0;"/><text fill="#000000" font-family="sans-serif" font-size="11" lengthAdjust="spacing" textLength="141" x="248" y="364.4346">int getFrequentRenterPoints()</text><!--MD5=[e69084ab16b022bdbef99762ea85e9d6]
class Movie--><rect codeLine="23" fill="#FEFECE" filter="url(#fz4d95ph1lyfv)" height="186.3594" id="Movie" style="stroke:#A80036;stroke-width:1.5;" width="239" x="209" y="431"/><ellipse cx="308.75" cy="447" fill="#ADD1B2" rx="11" ry="11" style="stroke:#A80036;stroke-width:1.0;"/><path d="M311.5156,442.875 Q311.6719,442.6563 311.8594,442.5469 Q312.0469,442.4375 312.2656,442.4375 Q312.6406,442.4375 312.875,442.7031 Q313.1094,442.9531 313.1094,443.5625 L313.1094,445.0156 Q313.1094,445.625 312.875,445.8906 Q312.6406,446.1563 312.2656,446.1563 Q311.9219,446.1563 311.7188,445.9531 Q311.5156,445.7656 311.4063,445.25 Q311.3594,444.8906 311.1719,444.7031 Q310.8438,444.3281 310.2344,444.1094 Q309.625,443.8906 309,443.8906 Q308.2344,443.8906 307.5938,444.2188 Q306.9688,444.5469 306.4688,445.2969 Q305.9844,446.0469 305.9844,447.0781 L305.9844,448.1719 Q305.9844,449.4063 306.875,450.2344 Q307.7656,451.0469 309.3594,451.0469 Q310.2969,451.0469 310.9531,450.7969 Q311.3438,450.6406 311.7656,450.2031 Q312.0313,449.9375 312.1719,449.8594 Q312.3281,449.7813 312.5313,449.7813 Q312.8594,449.7813 313.1094,450.0469 Q313.375,450.2969 313.375,450.6406 Q313.375,450.9844 313.0313,451.3906 Q312.5313,451.9688 311.7344,452.2969 Q310.6563,452.75 309.3594,452.75 Q307.8438,452.75 306.6406,452.125 Q305.6563,451.625 304.9688,450.5625 Q304.2813,449.4844 304.2813,448.2031 L304.2813,447.0469 Q304.2813,445.7188 304.8906,444.5781 Q305.5156,443.4219 306.6094,442.8125 Q307.7031,442.1875 308.9375,442.1875 Q309.6719,442.1875 310.3125,442.3594 Q310.9688,442.5156 311.5156,442.875 Z " fill="#000000"/><text fill="#000000" font-family="sans-serif" font-size="12" lengthAdjust="spacing" textLength="31" x="329.25" y="451.9102">Movie</text><line style="stroke:#A80036;stroke-width:1.5;" x1="210" x2="447" y1="463" y2="463"/><ellipse cx="220" cy="474" fill="none" rx="3" ry="3" style="stroke:#038048;stroke-width:1.0;"/><text fill="#000000" font-family="sans-serif" font-size="11" lengthAdjust="spacing" textLength="136" x="229" y="478.4189">static final int REGULAR = 0;</text><ellipse cx="220" cy="487.8359" fill="none" rx="3" ry="3" style="stroke:#038048;stroke-width:1.0;"/><text fill="#000000" font-family="sans-serif" font-size="11" lengthAdjust="spacing" textLength="162" x="229" y="492.2549">static final int NEW_RELEASE = 1;</text><ellipse cx="220" cy="501.6719" fill="none" rx="3" ry="3" style="stroke:#038048;stroke-width:1.0;"/><text fill="#000000" font-family="sans-serif" font-size="11" lengthAdjust="spacing" textLength="143" x="229" y="506.0908">static final int CHILDRENS = 2;</text><rect fill="none" height="6" style="stroke:#C82930;stroke-width:1.0;" width="6" x="217" y="512.5078"/><text fill="#000000" font-family="sans-serif" font-size="11" lengthAdjust="spacing" textLength="50" x="229" y="519.9268">String title;</text><rect fill="none" height="6" style="stroke:#C82930;stroke-width:1.0;" width="6" x="217" y="526.3438"/><text fill="#000000" font-family="sans-serif" font-size="11" lengthAdjust="spacing" textLength="54" x="229" y="533.7627">Price price;</text><line style="stroke:#A80036;stroke-width:1.5;" x1="210" x2="447" y1="540.1797" y2="540.1797"/><ellipse cx="220" cy="551.1797" fill="#84BE84" rx="3" ry="3" style="stroke:#038048;stroke-width:1.0;"/><text fill="#000000" font-family="sans-serif" font-size="11" lengthAdjust="spacing" textLength="152" x="229" y="555.5986">Movie(String title, int priceCode)</text><ellipse cx="220" cy="565.0156" fill="#84BE84" rx="3" ry="3" style="stroke:#038048;stroke-width:1.0;"/><text fill="#000000" font-family="sans-serif" font-size="11" lengthAdjust="spacing" textLength="165" x="229" y="569.4346">double getCharge(int daysRented)</text><ellipse cx="220" cy="578.8516" fill="#84BE84" rx="3" ry="3" style="stroke:#038048;stroke-width:1.0;"/><text fill="#000000" font-family="sans-serif" font-size="11" lengthAdjust="spacing" textLength="213" x="229" y="583.2705">int getFrequentRenterPoints(int daysRented)</text><ellipse cx="220" cy="592.6875" fill="#84BE84" rx="3" ry="3" style="stroke:#038048;stroke-width:1.0;"/><text fill="#000000" font-family="sans-serif" font-size="11" lengthAdjust="spacing" textLength="158" x="229" y="597.1064">void setPriceCode(int priceCode)</text><ellipse cx="220" cy="606.5234" fill="#84BE84" rx="3" ry="3" style="stroke:#038048;stroke-width:1.0;"/><text fill="#000000" font-family="sans-serif" font-size="11" lengthAdjust="spacing" textLength="73" x="229" y="610.9424">String getTitle()</text><!--MD5=[a40a7ac4b423335b0d34bf16cf36e547]
class Price--><rect codeLine="36" fill="#FEFECE" filter="url(#fz4d95ph1lyfv)" height="89.5078" id="Price" style="stroke:#A80036;stroke-width:1.5;" width="239" x="209" y="677"/><ellipse cx="310.25" cy="693" fill="#ADD1B2" rx="11" ry="11" style="stroke:#A80036;stroke-width:1.0;"/><path d="M313.0156,688.875 Q313.1719,688.6563 313.3594,688.5469 Q313.5469,688.4375 313.7656,688.4375 Q314.1406,688.4375 314.375,688.7031 Q314.6094,688.9531 314.6094,689.5625 L314.6094,691.0156 Q314.6094,691.625 314.375,691.8906 Q314.1406,692.1563 313.7656,692.1563 Q313.4219,692.1563 313.2188,691.9531 Q313.0156,691.7656 312.9063,691.25 Q312.8594,690.8906 312.6719,690.7031 Q312.3438,690.3281 311.7344,690.1094 Q311.125,689.8906 310.5,689.8906 Q309.7344,689.8906 309.0938,690.2188 Q308.4688,690.5469 307.9688,691.2969 Q307.4844,692.0469 307.4844,693.0781 L307.4844,694.1719 Q307.4844,695.4063 308.375,696.2344 Q309.2656,697.0469 310.8594,697.0469 Q311.7969,697.0469 312.4531,696.7969 Q312.8438,696.6406 313.2656,696.2031 Q313.5313,695.9375 313.6719,695.8594 Q313.8281,695.7813 314.0313,695.7813 Q314.3594,695.7813 314.6094,696.0469 Q314.875,696.2969 314.875,696.6406 Q314.875,696.9844 314.5313,697.3906 Q314.0313,697.9688 313.2344,698.2969 Q312.1563,698.75 310.8594,698.75 Q309.3438,698.75 308.1406,698.125 Q307.1563,697.625 306.4688,696.5625 Q305.7813,695.4844 305.7813,694.2031 L305.7813,693.0469 Q305.7813,691.7188 306.3906,690.5781 Q307.0156,689.4219 308.1094,688.8125 Q309.2031,688.1875 310.4375,688.1875 Q311.1719,688.1875 311.8125,688.3594 Q312.4688,688.5156 313.0156,688.875 Z " fill="#000000"/><text fill="#000000" font-family="sans-serif" font-size="12" lengthAdjust="spacing" textLength="28" x="330.75" y="697.9102">Price</text><line style="stroke:#A80036;stroke-width:1.5;" x1="210" x2="447" y1="709" y2="709"/><line style="stroke:#A80036;stroke-width:1.5;" x1="210" x2="447" y1="717" y2="717"/><ellipse cx="220" cy="728" fill="#84BE84" rx="3" ry="3" style="stroke:#038048;stroke-width:1.0;"/><text fill="#000000" font-family="sans-serif" font-size="11" lengthAdjust="spacing" textLength="86" x="229" y="732.4189">int getPriceCode()</text><ellipse cx="220" cy="741.8359" fill="#84BE84" rx="3" ry="3" style="stroke:#038048;stroke-width:1.0;"/><text fill="#000000" font-family="sans-serif" font-size="11" lengthAdjust="spacing" textLength="165" x="229" y="746.2549">double getCharge(int daysRented)</text><ellipse cx="220" cy="755.6719" fill="#84BE84" rx="3" ry="3" style="stroke:#038048;stroke-width:1.0;"/><text fill="#000000" font-family="sans-serif" font-size="11" lengthAdjust="spacing" textLength="213" x="229" y="760.0908">int getFrequentRenterPoints(int daysRented)</text><!--MD5=[2344beb72bdbdd7f341ff0709d123f49]
class RegularPrice--><rect codeLine="41" fill="#FEFECE" filter="url(#fz4d95ph1lyfv)" height="61.8359" id="RegularPrice" style="stroke:#A80036;stroke-width:1.5;" width="191" x="7" y="841"/><ellipse cx="62.25" cy="857" fill="#ADD1B2" rx="11" ry="11" style="stroke:#A80036;stroke-width:1.0;"/><path d="M65.0156,852.875 Q65.1719,852.6563 65.3594,852.5469 Q65.5469,852.4375 65.7656,852.4375 Q66.1406,852.4375 66.375,852.7031 Q66.6094,852.9531 66.6094,853.5625 L66.6094,855.0156 Q66.6094,855.625 66.375,855.8906 Q66.1406,856.1563 65.7656,856.1563 Q65.4219,856.1563 65.2188,855.9531 Q65.0156,855.7656 64.9063,855.25 Q64.8594,854.8906 64.6719,854.7031 Q64.3438,854.3281 63.7344,854.1094 Q63.125,853.8906 62.5,853.8906 Q61.7344,853.8906 61.0938,854.2188 Q60.4688,854.5469 59.9688,855.2969 Q59.4844,856.0469 59.4844,857.0781 L59.4844,858.1719 Q59.4844,859.4063 60.375,860.2344 Q61.2656,861.0469 62.8594,861.0469 Q63.7969,861.0469 64.4531,860.7969 Q64.8438,860.6406 65.2656,860.2031 Q65.5313,859.9375 65.6719,859.8594 Q65.8281,859.7813 66.0313,859.7813 Q66.3594,859.7813 66.6094,860.0469 Q66.875,860.2969 66.875,860.6406 Q66.875,860.9844 66.5313,861.3906 Q66.0313,861.9688 65.2344,862.2969 Q64.1563,862.75 62.8594,862.75 Q61.3438,862.75 60.1406,862.125 Q59.1563,861.625 58.4688,860.5625 Q57.7813,859.4844 57.7813,858.2031 L57.7813,857.0469 Q57.7813,855.7188 58.3906,854.5781 Q59.0156,853.4219 60.1094,852.8125 Q61.2031,852.1875 62.4375,852.1875 Q63.1719,852.1875 63.8125,852.3594 Q64.4688,852.5156 65.0156,852.875 Z " fill="#000000"/><text fill="#000000" font-family="sans-serif" font-size="12" lengthAdjust="spacing" textLength="72" x="82.75" y="861.9102">RegularPrice</text><line style="stroke:#A80036;stroke-width:1.5;" x1="8" x2="197" y1="873" y2="873"/><line style="stroke:#A80036;stroke-width:1.5;" x1="8" x2="197" y1="881" y2="881"/><ellipse cx="18" cy="892" fill="#84BE84" rx="3" ry="3" style="stroke:#038048;stroke-width:1.0;"/><text fill="#000000" font-family="sans-serif" font-size="11" lengthAdjust="spacing" textLength="165" x="27" y="896.4189">double getCharge(int daysRented)</text><!--MD5=[4d6c3fd5e1ff06fac9813d8657dd86db]
class ChildrenPrice--><rect codeLine="44" fill="#FEFECE" filter="url(#fz4d95ph1lyfv)" height="61.8359" id="ChildrenPrice" style="stroke:#A80036;stroke-width:1.5;" width="191" x="233" y="841"/><ellipse cx="286.75" cy="857" fill="#ADD1B2" rx="11" ry="11" style="stroke:#A80036;stroke-width:1.0;"/><path d="M289.5156,852.875 Q289.6719,852.6563 289.8594,852.5469 Q290.0469,852.4375 290.2656,852.4375 Q290.6406,852.4375 290.875,852.7031 Q291.1094,852.9531 291.1094,853.5625 L291.1094,855.0156 Q291.1094,855.625 290.875,855.8906 Q290.6406,856.1563 290.2656,856.1563 Q289.9219,856.1563 289.7188,855.9531 Q289.5156,855.7656 289.4063,855.25 Q289.3594,854.8906 289.1719,854.7031 Q288.8438,854.3281 288.2344,854.1094 Q287.625,853.8906 287,853.8906 Q286.2344,853.8906 285.5938,854.2188 Q284.9688,854.5469 284.4688,855.2969 Q283.9844,856.0469 283.9844,857.0781 L283.9844,858.1719 Q283.9844,859.4063 284.875,860.2344 Q285.7656,861.0469 287.3594,861.0469 Q288.2969,861.0469 288.9531,860.7969 Q289.3438,860.6406 289.7656,860.2031 Q290.0313,859.9375 290.1719,859.8594 Q290.3281,859.7813 290.5313,859.7813 Q290.8594,859.7813 291.1094,860.0469 Q291.375,860.2969 291.375,860.6406 Q291.375,860.9844 291.0313,861.3906 Q290.5313,861.9688 289.7344,862.2969 Q288.6563,862.75 287.3594,862.75 Q285.8438,862.75 284.6406,862.125 Q283.6563,861.625 282.9688,860.5625 Q282.2813,859.4844 282.2813,858.2031 L282.2813,857.0469 Q282.2813,855.7188 282.8906,854.5781 Q283.5156,853.4219 284.6094,852.8125 Q285.7031,852.1875 286.9375,852.1875 Q287.6719,852.1875 288.3125,852.3594 Q288.9688,852.5156 289.5156,852.875 Z " fill="#000000"/><text fill="#000000" font-family="sans-serif" font-size="12" lengthAdjust="spacing" textLength="75" x="307.25" y="861.9102">ChildrenPrice</text><line style="stroke:#A80036;stroke-width:1.5;" x1="234" x2="423" y1="873" y2="873"/><line style="stroke:#A80036;stroke-width:1.5;" x1="234" x2="423" y1="881" y2="881"/><ellipse cx="244" cy="892" fill="#84BE84" rx="3" ry="3" style="stroke:#038048;stroke-width:1.0;"/><text fill="#000000" font-family="sans-serif" font-size="11" lengthAdjust="spacing" textLength="165" x="253" y="896.4189">double getCharge(int daysRented)</text><!--MD5=[b47ebc111c8d62c1ab4e3accd85c4dbd]
class NewReleasePrice--><rect codeLine="47" fill="#FEFECE" filter="url(#fz4d95ph1lyfv)" height="89.5078" id="NewReleasePrice" style="stroke:#A80036;stroke-width:1.5;" width="239" x="459" y="827"/><ellipse cx="524.25" cy="843" fill="#ADD1B2" rx="11" ry="11" style="stroke:#A80036;stroke-width:1.0;"/><path d="M527.0156,838.875 Q527.1719,838.6563 527.3594,838.5469 Q527.5469,838.4375 527.7656,838.4375 Q528.1406,838.4375 528.375,838.7031 Q528.6094,838.9531 528.6094,839.5625 L528.6094,841.0156 Q528.6094,841.625 528.375,841.8906 Q528.1406,842.1563 527.7656,842.1563 Q527.4219,842.1563 527.2188,841.9531 Q527.0156,841.7656 526.9063,841.25 Q526.8594,840.8906 526.6719,840.7031 Q526.3438,840.3281 525.7344,840.1094 Q525.125,839.8906 524.5,839.8906 Q523.7344,839.8906 523.0938,840.2188 Q522.4688,840.5469 521.9688,841.2969 Q521.4844,842.0469 521.4844,843.0781 L521.4844,844.1719 Q521.4844,845.4063 522.375,846.2344 Q523.2656,847.0469 524.8594,847.0469 Q525.7969,847.0469 526.4531,846.7969 Q526.8438,846.6406 527.2656,846.2031 Q527.5313,845.9375 527.6719,845.8594 Q527.8281,845.7813 528.0313,845.7813 Q528.3594,845.7813 528.6094,846.0469 Q528.875,846.2969 528.875,846.6406 Q528.875,846.9844 528.5313,847.3906 Q528.0313,847.9688 527.2344,848.2969 Q526.1563,848.75 524.8594,848.75 Q523.3438,848.75 522.1406,848.125 Q521.1563,847.625 520.4688,846.5625 Q519.7813,845.4844 519.7813,844.2031 L519.7813,843.0469 Q519.7813,841.7188 520.3906,840.5781 Q521.0156,839.4219 522.1094,838.8125 Q523.2031,838.1875 524.4375,838.1875 Q525.1719,838.1875 525.8125,838.3594 Q526.4688,838.5156 527.0156,838.875 Z " fill="#000000"/><text fill="#000000" font-family="sans-serif" font-size="12" lengthAdjust="spacing" textLength="100" x="544.75" y="847.9102">NewReleasePrice</text><line style="stroke:#A80036;stroke-width:1.5;" x1="460" x2="697" y1="859" y2="859"/><line style="stroke:#A80036;stroke-width:1.5;" x1="460" x2="697" y1="867" y2="867"/><ellipse cx="470" cy="878" fill="#84BE84" rx="3" ry="3" style="stroke:#038048;stroke-width:1.0;"/><text fill="#000000" font-family="sans-serif" font-size="11" lengthAdjust="spacing" textLength="86" x="479" y="882.4189">int getPriceCode()</text><ellipse cx="470" cy="891.8359" fill="#84BE84" rx="3" ry="3" style="stroke:#038048;stroke-width:1.0;"/><text fill="#000000" font-family="sans-serif" font-size="11" lengthAdjust="spacing" textLength="165" x="479" y="896.2549">double getCharge(int daysRented)</text><ellipse cx="470" cy="905.6719" fill="#84BE84" rx="3" ry="3" style="stroke:#038048;stroke-width:1.0;"/><text fill="#000000" font-family="sans-serif" font-size="11" lengthAdjust="spacing" textLength="213" x="479" y="910.0908">int getFrequentRenterPoints(int daysRented)</text><!--MD5=[f3878efad70c05db3650d422c897e41d]
link Customer to Rental--><path codeLine="53" d="M328.5,178.29 C328.5,178.29 328.5,201.92 328.5,212.8 " fill="none" id="Customer-Rental" style="stroke:#A80036;stroke-width:1.0;"/><polygon fill="#A80036" points="328.5,225.88,332.5,216.88,328.5,220.88,324.5,216.88,328.5,225.88" style="stroke:#A80036;stroke-width:1.0;"/><line style="stroke:#A80036;stroke-width:1.0;" x1="328.5" x2="328.5" y1="220.88" y2="212.88"/><polygon fill="#FFFFFF" points="328.5,166.29,324.5,172.29,328.5,178.29,332.5,172.29,328.5,166.29" style="stroke:#A80036;stroke-width:1.0;"/><!--MD5=[3ff2e791b45c1345dae11c9928fff133]
link Rental to Movie--><path codeLine="54" d="M328.5,371.14 C328.5,388.53 328.5,407.41 328.5,425.76 " fill="none" id="Rental-to-Movie" style="stroke:#A80036;stroke-width:1.0;"/><polygon fill="#A80036" points="328.5,430.93,332.5,421.93,328.5,425.93,324.5,421.93,328.5,430.93" style="stroke:#A80036;stroke-width:1.0;"/><!--MD5=[3b40980201cd791f7d29e52841ed6bc4]
reverse link Movie to Price--><path codeLine="55" d="M328.5,630.4 C328.5,646.76 328.5,662.84 328.5,676.81 " fill="none" id="Movie-backto-Price" style="stroke:#A80036;stroke-width:1.0;"/><polygon fill="#A80036" points="328.5,617.26,324.5,623.26,328.5,629.26,332.5,623.26,328.5,617.26" style="stroke:#A80036;stroke-width:1.0;"/><!--MD5=[85989d059ac8b4a74bbb6cc6bd724fbd]
reverse link Price to RegularPrice--><path codeLine="56" d="M244.19,778.21 C211.71,799.48 175.85,822.97 148.33,840.99 " fill="none" id="Price-backto-RegularPrice" style="stroke:#A80036;stroke-width:1.0;"/><polygon fill="none" points="240.74,772.11,261.3,767,248.41,783.82,240.74,772.11" style="stroke:#A80036;stroke-width:1.0;"/><!--MD5=[d9b14c662436a044e1d358e07c9ccaad]
reverse link Price to ChildrenPrice--><path codeLine="57" d="M328.5,787.14 C328.5,805.87 328.5,825.46 328.5,840.99 " fill="none" id="Price-backto-ChildrenPrice" style="stroke:#A80036;stroke-width:1.0;"/><polygon fill="none" points="321.5,787,328.5,767,335.5,787,321.5,787" style="stroke:#A80036;stroke-width:1.0;"/><!--MD5=[7c030624453ab1086e12de251d16fa87]
reverse link Price to NewReleasePrice--><path codeLine="58" d="M420.12,777.24 C447.72,793.58 477.67,811.31 504.02,826.91 " fill="none" id="Price-backto-NewReleasePrice" style="stroke:#A80036;stroke-width:1.0;"/><polygon fill="none" points="416.48,783.22,402.83,767,423.61,771.17,416.48,783.22" style="stroke:#A80036;stroke-width:1.0;"/><!--MD5=[c827ea3bc2b73bc156ab07a8ad792666]
@startuml movies

class Customer {
- String name;
- List<Rental> rentals;
+ Costumer(String name) 
+ void addRental(Rental rental)
+ String getName()
+ String statement()
- double getTotalCharge()
- int getTotalFrequentRenterPoints()
}

class Rental {
- Movie movie;
- int daysRented;
+ Rental(Movie movie, int daysRented)
+ int getDaysRented()
+ Movie getMovie()
+ double getCharge()
+ int getFrequentRenterPoints()
}

class Movie {
+ static final int REGULAR = 0;
+ static final int NEW_RELEASE = 1;
+ static final int CHILDRENS = 2;
- String title;
- Price price;
+ Movie(String title, int priceCode)
+ double getCharge(int daysRented)
+ int getFrequentRenterPoints(int daysRented)
+ void setPriceCode(int priceCode)
+ String getTitle()
}

class Price {
+ int getPriceCode()
+ double getCharge(int daysRented)
+ int getFrequentRenterPoints(int daysRented)
}
class RegularPrice {
+ double getCharge(int daysRented)
}
class ChildrenPrice {
+ double getCharge(int daysRented)
}
class NewReleasePrice {
+ int getPriceCode()
+ double getCharge(int daysRented)
+ int getFrequentRenterPoints(int daysRented)
}

Customer o-down-> Rental
Rental -down-> Movie
Movie *-down- Price
Price <|-down- RegularPrice
Price <|-down- ChildrenPrice
Price <|-down- NewReleasePrice

@enduml

PlantUML version 1.2021.00(Sun Jan 10 11:25:05 CET 2021)
(GPL source distribution)
Java Runtime: OpenJDK Runtime Environment
JVM: OpenJDK 64-Bit Server VM
Default Encoding: Cp1252
Language: es
Country: ES
--></g></svg>