<?xml version="1.0" encoding="UTF-8" standalone="no"?><svg xmlns="http://www.w3.org/2000/svg" xmlns:xlink="http://www.w3.org/1999/xlink" contentScriptType="application/ecmascript" contentStyleType="text/css" height="902px" preserveAspectRatio="none" style="width:435px;height:902px;" version="1.1" viewBox="0 0 435 902" width="435px" zoomAndPan="magnify"><defs><filter height="300%" id="f1lginrq00juw" width="300%" x="-1" y="-1"><feGaussianBlur result="blurOut" stdDeviation="2.0"/><feColorMatrix in="blurOut" result="blurOut2" type="matrix" values="0 0 0 0 0 0 0 0 0 0 0 0 0 0 0 0 0 0 .4 0"/><feOffset dx="4.0" dy="4.0" in="blurOut2" result="blurOut3"/><feBlend in="SourceGraphic" in2="blurOut3" mode="normal"/></filter></defs><g><!--MD5=[2ce0c9fb7f55b1e256ab28a8ea6b25ec]
class Customer--><rect codeLine="2" fill="#FEFECE" filter="url(#f1lginrq00juw)" height="158.6875" id="Customer" style="stroke:#A80036;stroke-width:1.5;" width="190" x="105" y="7"/><ellipse cx="168.25" cy="23" fill="#ADD1B2" rx="11" ry="11" style="stroke:#A80036;stroke-width:1.0;"/><path d="M171.0156,18.875 Q171.1719,18.6563 171.3594,18.5469 Q171.5469,18.4375 171.7656,18.4375 Q172.1406,18.4375 172.375,18.7031 Q172.6094,18.9531 172.6094,19.5625 L172.6094,21.0156 Q172.6094,21.625 172.375,21.8906 Q172.1406,22.1563 171.7656,22.1563 Q171.4219,22.1563 171.2188,21.9531 Q171.0156,21.7656 170.9063,21.25 Q170.8594,20.8906 170.6719,20.7031 Q170.3438,20.3281 169.7344,20.1094 Q169.125,19.8906 168.5,19.8906 Q167.7344,19.8906 167.0938,20.2188 Q166.4688,20.5469 165.9688,21.2969 Q165.4844,22.0469 165.4844,23.0781 L165.4844,24.1719 Q165.4844,25.4063 166.375,26.2344 Q167.2656,27.0469 168.8594,27.0469 Q169.7969,27.0469 170.4531,26.7969 Q170.8438,26.6406 171.2656,26.2031 Q171.5313,25.9375 171.6719,25.8594 Q171.8281,25.7813 172.0313,25.7813 Q172.3594,25.7813 172.6094,26.0469 Q172.875,26.2969 172.875,26.6406 Q172.875,26.9844 172.5313,27.3906 Q172.0313,27.9688 171.2344,28.2969 Q170.1563,28.75 168.8594,28.75 Q167.3438,28.75 166.1406,28.125 Q165.1563,27.625 164.4688,26.5625 Q163.7813,25.4844 163.7813,24.2031 L163.7813,23.0469 Q163.7813,21.7188 164.3906,20.5781 Q165.0156,19.4219 166.1094,18.8125 Q167.2031,18.1875 168.4375,18.1875 Q169.1719,18.1875 169.8125,18.3594 Q170.4688,18.5156 171.0156,18.875 Z " fill="#000000"/><text fill="#000000" font-family="sans-serif" font-size="12" lengthAdjust="spacing" textLength="55" x="188.75" y="27.9102">Customer</text><line style="stroke:#A80036;stroke-width:1.5;" x1="106" x2="294" y1="39" y2="39"/><rect fill="none" height="6" style="stroke:#C82930;stroke-width:1.0;" width="6" x="113" y="47"/><text fill="#000000" font-family="sans-serif" font-size="11" lengthAdjust="spacing" textLength="60" x="125" y="54.4189">String name;</text><rect fill="none" height="6" style="stroke:#C82930;stroke-width:1.0;" width="6" x="113" y="60.8359"/><text fill="#000000" font-family="sans-serif" font-size="11" lengthAdjust="spacing" textLength="98" x="125" y="68.2549">List&lt;Rental&gt; rentals;</text><line style="stroke:#A80036;stroke-width:1.5;" x1="106" x2="294" y1="74.6719" y2="74.6719"/><ellipse cx="116" cy="85.6719" fill="#84BE84" rx="3" ry="3" style="stroke:#038048;stroke-width:1.0;"/><text fill="#000000" font-family="sans-serif" font-size="11" lengthAdjust="spacing" textLength="111" x="125" y="90.0908">Costumer(String name)</text><ellipse cx="116" cy="99.5078" fill="#84BE84" rx="3" ry="3" style="stroke:#038048;stroke-width:1.0;"/><text fill="#000000" font-family="sans-serif" font-size="11" lengthAdjust="spacing" textLength="139" x="125" y="103.9268">void addRental(Rental rental)</text><ellipse cx="116" cy="113.3438" fill="#84BE84" rx="3" ry="3" style="stroke:#038048;stroke-width:1.0;"/><text fill="#000000" font-family="sans-serif" font-size="11" lengthAdjust="spacing" textLength="81" x="125" y="117.7627">String getName()</text><ellipse cx="116" cy="127.1797" fill="#84BE84" rx="3" ry="3" style="stroke:#038048;stroke-width:1.0;"/><text fill="#000000" font-family="sans-serif" font-size="11" lengthAdjust="spacing" textLength="86" x="125" y="131.5986">String statement()</text><rect fill="#F24D5C" height="6" style="stroke:#C82930;stroke-width:1.0;" width="6" x="113" y="138.0156"/><text fill="#000000" font-family="sans-serif" font-size="11" lengthAdjust="spacing" textLength="116" x="125" y="145.4346">double getTotalCharge()</text><rect fill="#F24D5C" height="6" style="stroke:#C82930;stroke-width:1.0;" width="6" x="113" y="151.8516"/><text fill="#000000" font-family="sans-serif" font-size="11" lengthAdjust="spacing" textLength="164" x="125" y="159.2705">int getTotalFrequentRenterPoints()</text><!--MD5=[931c2459a5b1ef2b405e84c8dc93c38e]
class Rental--><rect codeLine="13" fill="#FEFECE" filter="url(#f1lginrq00juw)" height="144.8516" id="Rental" style="stroke:#A80036;stroke-width:1.5;" width="201" x="99.5" y="226"/><ellipse cx="177.75" cy="242" fill="#ADD1B2" rx="11" ry="11" style="stroke:#A80036;stroke-width:1.0;"/><path d="M180.5156,237.875 Q180.6719,237.6563 180.8594,237.5469 Q181.0469,237.4375 181.2656,237.4375 Q181.6406,237.4375 181.875,237.7031 Q182.1094,237.9531 182.1094,238.5625 L182.1094,240.0156 Q182.1094,240.625 181.875,240.8906 Q181.6406,241.1563 181.2656,241.1563 Q180.9219,241.1563 180.7188,240.9531 Q180.5156,240.7656 180.4063,240.25 Q180.3594,239.8906 180.1719,239.7031 Q179.8438,239.3281 179.2344,239.1094 Q178.625,238.8906 178,238.8906 Q177.2344,238.8906 176.5938,239.2188 Q175.9688,239.5469 175.4688,240.2969 Q174.9844,241.0469 174.9844,242.0781 L174.9844,243.1719 Q174.9844,244.4063 175.875,245.2344 Q176.7656,246.0469 178.3594,246.0469 Q179.2969,246.0469 179.9531,245.7969 Q180.3438,245.6406 180.7656,245.2031 Q181.0313,244.9375 181.1719,244.8594 Q181.3281,244.7813 181.5313,244.7813 Q181.8594,244.7813 182.1094,245.0469 Q182.375,245.2969 182.375,245.6406 Q182.375,245.9844 182.0313,246.3906 Q181.5313,246.9688 180.7344,247.2969 Q179.6563,247.75 178.3594,247.75 Q176.8438,247.75 175.6406,247.125 Q174.6563,246.625 173.9688,245.5625 Q173.2813,244.4844 173.2813,243.2031 L173.2813,242.0469 Q173.2813,240.7188 173.8906,239.5781 Q174.5156,238.4219 175.6094,237.8125 Q176.7031,237.1875 177.9375,237.1875 Q178.6719,237.1875 179.3125,237.3594 Q179.9688,237.5156 180.5156,237.875 Z " fill="#000000"/><text fill="#000000" font-family="sans-serif" font-size="12" lengthAdjust="spacing" textLength="36" x="198.25" y="246.9102">Rental</text><line style="stroke:#A80036;stroke-width:1.5;" x1="100.5" x2="299.5" y1="258" y2="258"/><rect fill="none" height="6" style="stroke:#C82930;stroke-width:1.0;" width="6" x="107.5" y="266"/><text fill="#000000" font-family="sans-serif" font-size="11" lengthAdjust="spacing" textLength="62" x="119.5" y="273.4189">Movie movie;</text><rect fill="none" height="6" style="stroke:#C82930;stroke-width:1.0;" width="6" x="107.5" y="279.8359"/><text fill="#000000" font-family="sans-serif" font-size="11" lengthAdjust="spacing" textLength="75" x="119.5" y="287.2549">int daysRented;</text><line style="stroke:#A80036;stroke-width:1.5;" x1="100.5" x2="299.5" y1="293.6719" y2="293.6719"/><ellipse cx="110.5" cy="304.6719" fill="#84BE84" rx="3" ry="3" style="stroke:#038048;stroke-width:1.0;"/><text fill="#000000" font-family="sans-serif" font-size="11" lengthAdjust="spacing" textLength="175" x="119.5" y="309.0908">Rental(Movie movie, int daysRented)</text><ellipse cx="110.5" cy="318.5078" fill="#84BE84" rx="3" ry="3" style="stroke:#038048;stroke-width:1.0;"/><text fill="#000000" font-family="sans-serif" font-size="11" lengthAdjust="spacing" textLength="96" x="119.5" y="322.9268">int getDaysRented()</text><ellipse cx="110.5" cy="332.3438" fill="#84BE84" rx="3" ry="3" style="stroke:#038048;stroke-width:1.0;"/><text fill="#000000" font-family="sans-serif" font-size="11" lengthAdjust="spacing" textLength="82" x="119.5" y="336.7627">Movie getMovie()</text><ellipse cx="110.5" cy="346.1797" fill="#84BE84" rx="3" ry="3" style="stroke:#038048;stroke-width:1.0;"/><text fill="#000000" font-family="sans-serif" font-size="11" lengthAdjust="spacing" textLength="93" x="119.5" y="350.5986">double getCharge()</text><ellipse cx="110.5" cy="360.0156" fill="#84BE84" rx="3" ry="3" style="stroke:#038048;stroke-width:1.0;"/><text fill="#000000" font-family="sans-serif" font-size="11" lengthAdjust="spacing" textLength="141" x="119.5" y="364.4346">int getFrequentRenterPoints()</text><!--MD5=[e69084ab16b022bdbef99762ea85e9d6]
class Movie--><rect codeLine="23" fill="#FEFECE" filter="url(#f1lginrq00juw)" height="200.1953" id="Movie" style="stroke:#A80036;stroke-width:1.5;" width="239" x="80.5" y="431"/><ellipse cx="180.25" cy="447" fill="#ADD1B2" rx="11" ry="11" style="stroke:#A80036;stroke-width:1.0;"/><path d="M183.0156,442.875 Q183.1719,442.6563 183.3594,442.5469 Q183.5469,442.4375 183.7656,442.4375 Q184.1406,442.4375 184.375,442.7031 Q184.6094,442.9531 184.6094,443.5625 L184.6094,445.0156 Q184.6094,445.625 184.375,445.8906 Q184.1406,446.1563 183.7656,446.1563 Q183.4219,446.1563 183.2188,445.9531 Q183.0156,445.7656 182.9063,445.25 Q182.8594,444.8906 182.6719,444.7031 Q182.3438,444.3281 181.7344,444.1094 Q181.125,443.8906 180.5,443.8906 Q179.7344,443.8906 179.0938,444.2188 Q178.4688,444.5469 177.9688,445.2969 Q177.4844,446.0469 177.4844,447.0781 L177.4844,448.1719 Q177.4844,449.4063 178.375,450.2344 Q179.2656,451.0469 180.8594,451.0469 Q181.7969,451.0469 182.4531,450.7969 Q182.8438,450.6406 183.2656,450.2031 Q183.5313,449.9375 183.6719,449.8594 Q183.8281,449.7813 184.0313,449.7813 Q184.3594,449.7813 184.6094,450.0469 Q184.875,450.2969 184.875,450.6406 Q184.875,450.9844 184.5313,451.3906 Q184.0313,451.9688 183.2344,452.2969 Q182.1563,452.75 180.8594,452.75 Q179.3438,452.75 178.1406,452.125 Q177.1563,451.625 176.4688,450.5625 Q175.7813,449.4844 175.7813,448.2031 L175.7813,447.0469 Q175.7813,445.7188 176.3906,444.5781 Q177.0156,443.4219 178.1094,442.8125 Q179.2031,442.1875 180.4375,442.1875 Q181.1719,442.1875 181.8125,442.3594 Q182.4688,442.5156 183.0156,442.875 Z " fill="#000000"/><text fill="#000000" font-family="sans-serif" font-size="12" lengthAdjust="spacing" textLength="31" x="200.75" y="451.9102">Movie</text><line style="stroke:#A80036;stroke-width:1.5;" x1="81.5" x2="318.5" y1="463" y2="463"/><ellipse cx="91.5" cy="474" fill="none" rx="3" ry="3" style="stroke:#038048;stroke-width:1.0;"/><text fill="#000000" font-family="sans-serif" font-size="11" lengthAdjust="spacing" textLength="136" x="100.5" y="478.4189">static final int REGULAR = 0;</text><ellipse cx="91.5" cy="487.8359" fill="none" rx="3" ry="3" style="stroke:#038048;stroke-width:1.0;"/><text fill="#000000" font-family="sans-serif" font-size="11" lengthAdjust="spacing" textLength="162" x="100.5" y="492.2549">static final int NEW_RELEASE = 1;</text><ellipse cx="91.5" cy="501.6719" fill="none" rx="3" ry="3" style="stroke:#038048;stroke-width:1.0;"/><text fill="#000000" font-family="sans-serif" font-size="11" lengthAdjust="spacing" textLength="143" x="100.5" y="506.0908">static final int CHILDRENS = 2;</text><rect fill="none" height="6" style="stroke:#C82930;stroke-width:1.0;" width="6" x="88.5" y="512.5078"/><text fill="#000000" font-family="sans-serif" font-size="11" lengthAdjust="spacing" textLength="50" x="100.5" y="519.9268">String title;</text><rect fill="none" height="6" style="stroke:#C82930;stroke-width:1.0;" width="6" x="88.5" y="526.3438"/><text fill="#000000" font-family="sans-serif" font-size="11" lengthAdjust="spacing" textLength="54" x="100.5" y="533.7627">Price price;</text><line style="stroke:#A80036;stroke-width:1.5;" x1="81.5" x2="318.5" y1="540.1797" y2="540.1797"/><ellipse cx="91.5" cy="551.1797" fill="#84BE84" rx="3" ry="3" style="stroke:#038048;stroke-width:1.0;"/><text fill="#000000" font-family="sans-serif" font-size="11" lengthAdjust="spacing" textLength="152" x="100.5" y="555.5986">Movie(String title, int priceCode)</text><ellipse cx="91.5" cy="565.0156" fill="#84BE84" rx="3" ry="3" style="stroke:#038048;stroke-width:1.0;"/><text fill="#000000" font-family="sans-serif" font-size="11" lengthAdjust="spacing" textLength="165" x="100.5" y="569.4346">double getCharge(int daysRented)</text><ellipse cx="91.5" cy="578.8516" fill="#84BE84" rx="3" ry="3" style="stroke:#038048;stroke-width:1.0;"/><text fill="#000000" font-family="sans-serif" font-size="11" lengthAdjust="spacing" textLength="213" x="100.5" y="583.2705">int getFrequentRenterPoints(int daysRented)</text><ellipse cx="91.5" cy="592.6875" fill="#84BE84" rx="3" ry="3" style="stroke:#038048;stroke-width:1.0;"/><text fill="#000000" font-family="sans-serif" font-size="11" lengthAdjust="spacing" textLength="86" x="100.5" y="597.1064">int getPriceCode()</text><ellipse cx="91.5" cy="606.5234" fill="#84BE84" rx="3" ry="3" style="stroke:#038048;stroke-width:1.0;"/><text fill="#000000" font-family="sans-serif" font-size="11" lengthAdjust="spacing" textLength="158" x="100.5" y="610.9424">void setPriceCode(int priceCode)</text><ellipse cx="91.5" cy="620.3594" fill="#84BE84" rx="3" ry="3" style="stroke:#038048;stroke-width:1.0;"/><text fill="#000000" font-family="sans-serif" font-size="11" lengthAdjust="spacing" textLength="73" x="100.5" y="624.7783">String getTitle()</text><!--MD5=[a40a7ac4b423335b0d34bf16cf36e547]
class Price--><rect codeLine="37" fill="#FEFECE" filter="url(#f1lginrq00juw)" height="75.6719" id="Price" style="stroke:#A80036;stroke-width:1.5;" width="191" x="104.5" y="691"/><ellipse cx="181.75" cy="707" fill="#ADD1B2" rx="11" ry="11" style="stroke:#A80036;stroke-width:1.0;"/><path d="M184.5156,702.875 Q184.6719,702.6563 184.8594,702.5469 Q185.0469,702.4375 185.2656,702.4375 Q185.6406,702.4375 185.875,702.7031 Q186.1094,702.9531 186.1094,703.5625 L186.1094,705.0156 Q186.1094,705.625 185.875,705.8906 Q185.6406,706.1563 185.2656,706.1563 Q184.9219,706.1563 184.7188,705.9531 Q184.5156,705.7656 184.4063,705.25 Q184.3594,704.8906 184.1719,704.7031 Q183.8438,704.3281 183.2344,704.1094 Q182.625,703.8906 182,703.8906 Q181.2344,703.8906 180.5938,704.2188 Q179.9688,704.5469 179.4688,705.2969 Q178.9844,706.0469 178.9844,707.0781 L178.9844,708.1719 Q178.9844,709.4063 179.875,710.2344 Q180.7656,711.0469 182.3594,711.0469 Q183.2969,711.0469 183.9531,710.7969 Q184.3438,710.6406 184.7656,710.2031 Q185.0313,709.9375 185.1719,709.8594 Q185.3281,709.7813 185.5313,709.7813 Q185.8594,709.7813 186.1094,710.0469 Q186.375,710.2969 186.375,710.6406 Q186.375,710.9844 186.0313,711.3906 Q185.5313,711.9688 184.7344,712.2969 Q183.6563,712.75 182.3594,712.75 Q180.8438,712.75 179.6406,712.125 Q178.6563,711.625 177.9688,710.5625 Q177.2813,709.4844 177.2813,708.2031 L177.2813,707.0469 Q177.2813,705.7188 177.8906,704.5781 Q178.5156,703.4219 179.6094,702.8125 Q180.7031,702.1875 181.9375,702.1875 Q182.6719,702.1875 183.3125,702.3594 Q183.9688,702.5156 184.5156,702.875 Z " fill="#000000"/><text fill="#000000" font-family="sans-serif" font-size="12" lengthAdjust="spacing" textLength="28" x="202.25" y="711.9102">Price</text><line style="stroke:#A80036;stroke-width:1.5;" x1="105.5" x2="294.5" y1="723" y2="723"/><line style="stroke:#A80036;stroke-width:1.5;" x1="105.5" x2="294.5" y1="731" y2="731"/><ellipse cx="115.5" cy="742" fill="#84BE84" rx="3" ry="3" style="stroke:#038048;stroke-width:1.0;"/><text fill="#000000" font-family="sans-serif" font-size="11" lengthAdjust="spacing" textLength="86" x="124.5" y="746.4189">int getPriceCode()</text><ellipse cx="115.5" cy="755.8359" fill="#84BE84" rx="3" ry="3" style="stroke:#038048;stroke-width:1.0;"/><text fill="#000000" font-family="sans-serif" font-size="11" lengthAdjust="spacing" textLength="165" x="124.5" y="760.2549">double getCharge(int daysRented)</text><!--MD5=[2344beb72bdbdd7f341ff0709d123f49]
class RegularPrice--><rect codeLine="41" fill="#FEFECE" filter="url(#f1lginrq00juw)" height="61.8359" id="RegularPrice" style="stroke:#A80036;stroke-width:1.5;" width="104" x="7" y="827"/><ellipse cx="22" cy="843" fill="#ADD1B2" rx="11" ry="11" style="stroke:#A80036;stroke-width:1.0;"/><path d="M24.7656,838.875 Q24.9219,838.6563 25.1094,838.5469 Q25.2969,838.4375 25.5156,838.4375 Q25.8906,838.4375 26.125,838.7031 Q26.3594,838.9531 26.3594,839.5625 L26.3594,841.0156 Q26.3594,841.625 26.125,841.8906 Q25.8906,842.1563 25.5156,842.1563 Q25.1719,842.1563 24.9688,841.9531 Q24.7656,841.7656 24.6563,841.25 Q24.6094,840.8906 24.4219,840.7031 Q24.0938,840.3281 23.4844,840.1094 Q22.875,839.8906 22.25,839.8906 Q21.4844,839.8906 20.8438,840.2188 Q20.2188,840.5469 19.7188,841.2969 Q19.2344,842.0469 19.2344,843.0781 L19.2344,844.1719 Q19.2344,845.4063 20.125,846.2344 Q21.0156,847.0469 22.6094,847.0469 Q23.5469,847.0469 24.2031,846.7969 Q24.5938,846.6406 25.0156,846.2031 Q25.2813,845.9375 25.4219,845.8594 Q25.5781,845.7813 25.7813,845.7813 Q26.1094,845.7813 26.3594,846.0469 Q26.625,846.2969 26.625,846.6406 Q26.625,846.9844 26.2813,847.3906 Q25.7813,847.9688 24.9844,848.2969 Q23.9063,848.75 22.6094,848.75 Q21.0938,848.75 19.8906,848.125 Q18.9063,847.625 18.2188,846.5625 Q17.5313,845.4844 17.5313,844.2031 L17.5313,843.0469 Q17.5313,841.7188 18.1406,840.5781 Q18.7656,839.4219 19.8594,838.8125 Q20.9531,838.1875 22.1875,838.1875 Q22.9219,838.1875 23.5625,838.3594 Q24.2188,838.5156 24.7656,838.875 Z " fill="#000000"/><text fill="#000000" font-family="sans-serif" font-size="12" lengthAdjust="spacing" textLength="72" x="36" y="847.9102">RegularPrice</text><line style="stroke:#A80036;stroke-width:1.5;" x1="8" x2="110" y1="859" y2="859"/><line style="stroke:#A80036;stroke-width:1.5;" x1="8" x2="110" y1="867" y2="867"/><text fill="#000000" font-family="sans-serif" font-size="11" lengthAdjust="spacing" textLength="86" x="13" y="882.4189">int getPriceCode()</text><!--MD5=[4d6c3fd5e1ff06fac9813d8657dd86db]
class ChildrenPrice--><rect codeLine="44" fill="#FEFECE" filter="url(#f1lginrq00juw)" height="61.8359" id="ChildrenPrice" style="stroke:#A80036;stroke-width:1.5;" width="107" x="146.5" y="827"/><ellipse cx="161.5" cy="843" fill="#ADD1B2" rx="11" ry="11" style="stroke:#A80036;stroke-width:1.0;"/><path d="M164.2656,838.875 Q164.4219,838.6563 164.6094,838.5469 Q164.7969,838.4375 165.0156,838.4375 Q165.3906,838.4375 165.625,838.7031 Q165.8594,838.9531 165.8594,839.5625 L165.8594,841.0156 Q165.8594,841.625 165.625,841.8906 Q165.3906,842.1563 165.0156,842.1563 Q164.6719,842.1563 164.4688,841.9531 Q164.2656,841.7656 164.1563,841.25 Q164.1094,840.8906 163.9219,840.7031 Q163.5938,840.3281 162.9844,840.1094 Q162.375,839.8906 161.75,839.8906 Q160.9844,839.8906 160.3438,840.2188 Q159.7188,840.5469 159.2188,841.2969 Q158.7344,842.0469 158.7344,843.0781 L158.7344,844.1719 Q158.7344,845.4063 159.625,846.2344 Q160.5156,847.0469 162.1094,847.0469 Q163.0469,847.0469 163.7031,846.7969 Q164.0938,846.6406 164.5156,846.2031 Q164.7813,845.9375 164.9219,845.8594 Q165.0781,845.7813 165.2813,845.7813 Q165.6094,845.7813 165.8594,846.0469 Q166.125,846.2969 166.125,846.6406 Q166.125,846.9844 165.7813,847.3906 Q165.2813,847.9688 164.4844,848.2969 Q163.4063,848.75 162.1094,848.75 Q160.5938,848.75 159.3906,848.125 Q158.4063,847.625 157.7188,846.5625 Q157.0313,845.4844 157.0313,844.2031 L157.0313,843.0469 Q157.0313,841.7188 157.6406,840.5781 Q158.2656,839.4219 159.3594,838.8125 Q160.4531,838.1875 161.6875,838.1875 Q162.4219,838.1875 163.0625,838.3594 Q163.7188,838.5156 164.2656,838.875 Z " fill="#000000"/><text fill="#000000" font-family="sans-serif" font-size="12" lengthAdjust="spacing" textLength="75" x="175.5" y="847.9102">ChildrenPrice</text><line style="stroke:#A80036;stroke-width:1.5;" x1="147.5" x2="252.5" y1="859" y2="859"/><line style="stroke:#A80036;stroke-width:1.5;" x1="147.5" x2="252.5" y1="867" y2="867"/><text fill="#000000" font-family="sans-serif" font-size="11" lengthAdjust="spacing" textLength="86" x="152.5" y="882.4189">int getPriceCode()</text><!--MD5=[b47ebc111c8d62c1ab4e3accd85c4dbd]
class NewReleasePrice--><rect codeLine="47" fill="#FEFECE" filter="url(#f1lginrq00juw)" height="61.8359" id="NewReleasePrice" style="stroke:#A80036;stroke-width:1.5;" width="132" x="289" y="827"/><ellipse cx="304" cy="843" fill="#ADD1B2" rx="11" ry="11" style="stroke:#A80036;stroke-width:1.0;"/><path d="M306.7656,838.875 Q306.9219,838.6563 307.1094,838.5469 Q307.2969,838.4375 307.5156,838.4375 Q307.8906,838.4375 308.125,838.7031 Q308.3594,838.9531 308.3594,839.5625 L308.3594,841.0156 Q308.3594,841.625 308.125,841.8906 Q307.8906,842.1563 307.5156,842.1563 Q307.1719,842.1563 306.9688,841.9531 Q306.7656,841.7656 306.6563,841.25 Q306.6094,840.8906 306.4219,840.7031 Q306.0938,840.3281 305.4844,840.1094 Q304.875,839.8906 304.25,839.8906 Q303.4844,839.8906 302.8438,840.2188 Q302.2188,840.5469 301.7188,841.2969 Q301.2344,842.0469 301.2344,843.0781 L301.2344,844.1719 Q301.2344,845.4063 302.125,846.2344 Q303.0156,847.0469 304.6094,847.0469 Q305.5469,847.0469 306.2031,846.7969 Q306.5938,846.6406 307.0156,846.2031 Q307.2813,845.9375 307.4219,845.8594 Q307.5781,845.7813 307.7813,845.7813 Q308.1094,845.7813 308.3594,846.0469 Q308.625,846.2969 308.625,846.6406 Q308.625,846.9844 308.2813,847.3906 Q307.7813,847.9688 306.9844,848.2969 Q305.9063,848.75 304.6094,848.75 Q303.0938,848.75 301.8906,848.125 Q300.9063,847.625 300.2188,846.5625 Q299.5313,845.4844 299.5313,844.2031 L299.5313,843.0469 Q299.5313,841.7188 300.1406,840.5781 Q300.7656,839.4219 301.8594,838.8125 Q302.9531,838.1875 304.1875,838.1875 Q304.9219,838.1875 305.5625,838.3594 Q306.2188,838.5156 306.7656,838.875 Z " fill="#000000"/><text fill="#000000" font-family="sans-serif" font-size="12" lengthAdjust="spacing" textLength="100" x="318" y="847.9102">NewReleasePrice</text><line style="stroke:#A80036;stroke-width:1.5;" x1="290" x2="420" y1="859" y2="859"/><line style="stroke:#A80036;stroke-width:1.5;" x1="290" x2="420" y1="867" y2="867"/><text fill="#000000" font-family="sans-serif" font-size="11" lengthAdjust="spacing" textLength="86" x="295" y="882.4189">int getPriceCode()</text><!--MD5=[f3878efad70c05db3650d422c897e41d]
link Customer to Rental--><path codeLine="51" d="M200,178.29 C200,178.29 200,201.92 200,212.8 " fill="none" id="Customer-Rental" style="stroke:#A80036;stroke-width:1.0;"/><polygon fill="#A80036" points="200,225.88,204,216.88,200,220.88,196,216.88,200,225.88" style="stroke:#A80036;stroke-width:1.0;"/><line style="stroke:#A80036;stroke-width:1.0;" x1="200" x2="200" y1="220.88" y2="212.88"/><polygon fill="#FFFFFF" points="200,166.29,196,172.29,200,178.29,204,172.29,200,166.29" style="stroke:#A80036;stroke-width:1.0;"/><!--MD5=[3ff2e791b45c1345dae11c9928fff133]
link Rental to Movie--><path codeLine="52" d="M200,371.17 C200,388.44 200,407.25 200,425.68 " fill="none" id="Rental-to-Movie" style="stroke:#A80036;stroke-width:1.0;"/><polygon fill="#A80036" points="200,430.87,204,421.87,200,425.87,196,421.87,200,430.87" style="stroke:#A80036;stroke-width:1.0;"/><!--MD5=[3b40980201cd791f7d29e52841ed6bc4]
reverse link Movie to Price--><path codeLine="53" d="M200,644.56 C200,661.18 200,677.22 200,690.73 " fill="none" id="Movie-backto-Price" style="stroke:#A80036;stroke-width:1.0;"/><polygon fill="#A80036" points="200,631.15,196,637.15,200,643.15,204,637.15,200,631.15" style="stroke:#A80036;stroke-width:1.0;"/><!--MD5=[85989d059ac8b4a74bbb6cc6bd724fbd]
reverse link Price to RegularPrice--><path codeLine="54" d="M143.93,780.5 C126.47,796.23 107.78,813.06 92.39,826.93 " fill="none" id="Price-backto-RegularPrice" style="stroke:#A80036;stroke-width:1.0;"/><polygon fill="none" points="139.29,775.26,158.84,767.08,148.66,785.66,139.29,775.26" style="stroke:#A80036;stroke-width:1.0;"/><!--MD5=[d9b14c662436a044e1d358e07c9ccaad]
reverse link Price to ChildrenPrice--><path codeLine="55" d="M200,787.23 C200,800.93 200,815.02 200,826.93 " fill="none" id="Price-backto-ChildrenPrice" style="stroke:#A80036;stroke-width:1.0;"/><polygon fill="none" points="193,787.08,200,767.08,207,787.08,193,787.08" style="stroke:#A80036;stroke-width:1.0;"/><!--MD5=[7c030624453ab1086e12de251d16fa87]
reverse link Price to NewReleasePrice--><path codeLine="56" d="M260.77,779.79 C280.21,795.72 301.12,812.85 318.29,826.93 " fill="none" id="Price-backto-NewReleasePrice" style="stroke:#A80036;stroke-width:1.0;"/><polygon fill="none" points="256.28,785.17,245.25,767.08,265.16,774.34,256.28,785.17" style="stroke:#A80036;stroke-width:1.0;"/><!--MD5=[7ec6b617f2234c821b5fba72cefcc746]
@startuml movies

class Customer {
- String name;
- List<Rental> rentals;
+ Costumer(String name) 
+ void addRental(Rental rental)
+ String getName()
+ String statement()
- double getTotalCharge()
- int getTotalFrequentRenterPoints()
}

class Rental {
- Movie movie;
- int daysRented;
+ Rental(Movie movie, int daysRented)
+ int getDaysRented()
+ Movie getMovie()
+ double getCharge()
+ int getFrequentRenterPoints()
}

class Movie {
+ static final int REGULAR = 0;
+ static final int NEW_RELEASE = 1;
+ static final int CHILDRENS = 2;
- String title;
- Price price;
+ Movie(String title, int priceCode)
+ double getCharge(int daysRented)
+ int getFrequentRenterPoints(int daysRented)
+ int getPriceCode()
+ void setPriceCode(int priceCode)
+ String getTitle()
}

class Price {
+ int getPriceCode()
+ double getCharge(int daysRented)
}
class RegularPrice {
int getPriceCode()
}
class ChildrenPrice {
int getPriceCode()
}
class NewReleasePrice {
int getPriceCode()
}

Customer o-down-> Rental
Rental -down-> Movie
Movie *-down- Price
Price <|-down- RegularPrice
Price <|-down- ChildrenPrice
Price <|-down- NewReleasePrice

@enduml

PlantUML version 1.2021.00(Sun Jan 10 11:25:05 CET 2021)
(GPL source distribution)
Java Runtime: OpenJDK Runtime Environment
JVM: OpenJDK 64-Bit Server VM
Default Encoding: Cp1252
Language: es
Country: ES
--></g></svg>