<?xml version="1.0" encoding="UTF-8" standalone="no"?><svg xmlns="http://www.w3.org/2000/svg" xmlns:xlink="http://www.w3.org/1999/xlink" contentScriptType="application/ecmascript" contentStyleType="text/css" height="958px" preserveAspectRatio="none" style="width:747px;height:958px;" version="1.1" viewBox="0 0 747 958" width="747px" zoomAndPan="magnify"><defs><filter height="300%" id="f14iqy9o5a7u2f" width="300%" x="-1" y="-1"><feGaussianBlur result="blurOut" stdDeviation="2.0"/><feColorMatrix in="blurOut" result="blurOut2" type="matrix" values="0 0 0 0 0 0 0 0 0 0 0 0 0 0 0 0 0 0 .4 0"/><feOffset dx="4.0" dy="4.0" in="blurOut2" result="blurOut3"/><feBlend in="SourceGraphic" in2="blurOut3" mode="normal"/></filter></defs><g><!--MD5=[2ce0c9fb7f55b1e256ab28a8ea6b25ec]
class Customer--><rect codeLine="2" fill="#FEFECE" filter="url(#f14iqy9o5a7u2f)" height="158.6875" id="Customer" style="stroke:#A80036;stroke-width:1.5;" width="190" x="266" y="7"/><ellipse cx="329.25" cy="23" fill="#ADD1B2" rx="11" ry="11" style="stroke:#A80036;stroke-width:1.0;"/><path d="M332.0156,18.875 Q332.1719,18.6563 332.3594,18.5469 Q332.5469,18.4375 332.7656,18.4375 Q333.1406,18.4375 333.375,18.7031 Q333.6094,18.9531 333.6094,19.5625 L333.6094,21.0156 Q333.6094,21.625 333.375,21.8906 Q333.1406,22.1563 332.7656,22.1563 Q332.4219,22.1563 332.2188,21.9531 Q332.0156,21.7656 331.9063,21.25 Q331.8594,20.8906 331.6719,20.7031 Q331.3438,20.3281 330.7344,20.1094 Q330.125,19.8906 329.5,19.8906 Q328.7344,19.8906 328.0938,20.2188 Q327.4688,20.5469 326.9688,21.2969 Q326.4844,22.0469 326.4844,23.0781 L326.4844,24.1719 Q326.4844,25.4063 327.375,26.2344 Q328.2656,27.0469 329.8594,27.0469 Q330.7969,27.0469 331.4531,26.7969 Q331.8438,26.6406 332.2656,26.2031 Q332.5313,25.9375 332.6719,25.8594 Q332.8281,25.7813 333.0313,25.7813 Q333.3594,25.7813 333.6094,26.0469 Q333.875,26.2969 333.875,26.6406 Q333.875,26.9844 333.5313,27.3906 Q333.0313,27.9688 332.2344,28.2969 Q331.1563,28.75 329.8594,28.75 Q328.3438,28.75 327.1406,28.125 Q326.1563,27.625 325.4688,26.5625 Q324.7813,25.4844 324.7813,24.2031 L324.7813,23.0469 Q324.7813,21.7188 325.3906,20.5781 Q326.0156,19.4219 327.1094,18.8125 Q328.2031,18.1875 329.4375,18.1875 Q330.1719,18.1875 330.8125,18.3594 Q331.4688,18.5156 332.0156,18.875 Z " fill="#000000"/><text fill="#000000" font-family="sans-serif" font-size="12" lengthAdjust="spacing" textLength="55" x="349.75" y="27.9102">Customer</text><line style="stroke:#A80036;stroke-width:1.5;" x1="267" x2="455" y1="39" y2="39"/><rect fill="none" height="6" style="stroke:#C82930;stroke-width:1.0;" width="6" x="274" y="47"/><text fill="#000000" font-family="sans-serif" font-size="11" lengthAdjust="spacing" textLength="60" x="286" y="54.4189">String name;</text><rect fill="none" height="6" style="stroke:#C82930;stroke-width:1.0;" width="6" x="274" y="60.8359"/><text fill="#000000" font-family="sans-serif" font-size="11" lengthAdjust="spacing" textLength="98" x="286" y="68.2549">List&lt;Rental&gt; rentals;</text><line style="stroke:#A80036;stroke-width:1.5;" x1="267" x2="455" y1="74.6719" y2="74.6719"/><ellipse cx="277" cy="85.6719" fill="#84BE84" rx="3" ry="3" style="stroke:#038048;stroke-width:1.0;"/><text fill="#000000" font-family="sans-serif" font-size="11" lengthAdjust="spacing" textLength="111" x="286" y="90.0908">Costumer(String name)</text><ellipse cx="277" cy="99.5078" fill="#84BE84" rx="3" ry="3" style="stroke:#038048;stroke-width:1.0;"/><text fill="#000000" font-family="sans-serif" font-size="11" lengthAdjust="spacing" textLength="139" x="286" y="103.9268">void addRental(Rental rental)</text><ellipse cx="277" cy="113.3438" fill="#84BE84" rx="3" ry="3" style="stroke:#038048;stroke-width:1.0;"/><text fill="#000000" font-family="sans-serif" font-size="11" lengthAdjust="spacing" textLength="81" x="286" y="117.7627">String getName()</text><ellipse cx="277" cy="127.1797" fill="#84BE84" rx="3" ry="3" style="stroke:#038048;stroke-width:1.0;"/><text fill="#000000" font-family="sans-serif" font-size="11" lengthAdjust="spacing" textLength="86" x="286" y="131.5986">String statement()</text><rect fill="#F24D5C" height="6" style="stroke:#C82930;stroke-width:1.0;" width="6" x="274" y="138.0156"/><text fill="#000000" font-family="sans-serif" font-size="11" lengthAdjust="spacing" textLength="116" x="286" y="145.4346">double getTotalCharge()</text><rect fill="#F24D5C" height="6" style="stroke:#C82930;stroke-width:1.0;" width="6" x="274" y="151.8516"/><text fill="#000000" font-family="sans-serif" font-size="11" lengthAdjust="spacing" textLength="164" x="286" y="159.2705">int getTotalFrequentRenterPoints()</text><!--MD5=[931c2459a5b1ef2b405e84c8dc93c38e]
class Rental--><rect codeLine="13" fill="#FEFECE" filter="url(#f14iqy9o5a7u2f)" height="144.8516" id="Rental" style="stroke:#A80036;stroke-width:1.5;" width="201" x="260.5" y="226"/><ellipse cx="338.75" cy="242" fill="#ADD1B2" rx="11" ry="11" style="stroke:#A80036;stroke-width:1.0;"/><path d="M341.5156,237.875 Q341.6719,237.6563 341.8594,237.5469 Q342.0469,237.4375 342.2656,237.4375 Q342.6406,237.4375 342.875,237.7031 Q343.1094,237.9531 343.1094,238.5625 L343.1094,240.0156 Q343.1094,240.625 342.875,240.8906 Q342.6406,241.1563 342.2656,241.1563 Q341.9219,241.1563 341.7188,240.9531 Q341.5156,240.7656 341.4063,240.25 Q341.3594,239.8906 341.1719,239.7031 Q340.8438,239.3281 340.2344,239.1094 Q339.625,238.8906 339,238.8906 Q338.2344,238.8906 337.5938,239.2188 Q336.9688,239.5469 336.4688,240.2969 Q335.9844,241.0469 335.9844,242.0781 L335.9844,243.1719 Q335.9844,244.4063 336.875,245.2344 Q337.7656,246.0469 339.3594,246.0469 Q340.2969,246.0469 340.9531,245.7969 Q341.3438,245.6406 341.7656,245.2031 Q342.0313,244.9375 342.1719,244.8594 Q342.3281,244.7813 342.5313,244.7813 Q342.8594,244.7813 343.1094,245.0469 Q343.375,245.2969 343.375,245.6406 Q343.375,245.9844 343.0313,246.3906 Q342.5313,246.9688 341.7344,247.2969 Q340.6563,247.75 339.3594,247.75 Q337.8438,247.75 336.6406,247.125 Q335.6563,246.625 334.9688,245.5625 Q334.2813,244.4844 334.2813,243.2031 L334.2813,242.0469 Q334.2813,240.7188 334.8906,239.5781 Q335.5156,238.4219 336.6094,237.8125 Q337.7031,237.1875 338.9375,237.1875 Q339.6719,237.1875 340.3125,237.3594 Q340.9688,237.5156 341.5156,237.875 Z " fill="#000000"/><text fill="#000000" font-family="sans-serif" font-size="12" lengthAdjust="spacing" textLength="36" x="359.25" y="246.9102">Rental</text><line style="stroke:#A80036;stroke-width:1.5;" x1="261.5" x2="460.5" y1="258" y2="258"/><rect fill="none" height="6" style="stroke:#C82930;stroke-width:1.0;" width="6" x="268.5" y="266"/><text fill="#000000" font-family="sans-serif" font-size="11" lengthAdjust="spacing" textLength="62" x="280.5" y="273.4189">Movie movie;</text><rect fill="none" height="6" style="stroke:#C82930;stroke-width:1.0;" width="6" x="268.5" y="279.8359"/><text fill="#000000" font-family="sans-serif" font-size="11" lengthAdjust="spacing" textLength="75" x="280.5" y="287.2549">int daysRented;</text><line style="stroke:#A80036;stroke-width:1.5;" x1="261.5" x2="460.5" y1="293.6719" y2="293.6719"/><ellipse cx="271.5" cy="304.6719" fill="#84BE84" rx="3" ry="3" style="stroke:#038048;stroke-width:1.0;"/><text fill="#000000" font-family="sans-serif" font-size="11" lengthAdjust="spacing" textLength="175" x="280.5" y="309.0908">Rental(Movie movie, int daysRented)</text><ellipse cx="271.5" cy="318.5078" fill="#84BE84" rx="3" ry="3" style="stroke:#038048;stroke-width:1.0;"/><text fill="#000000" font-family="sans-serif" font-size="11" lengthAdjust="spacing" textLength="96" x="280.5" y="322.9268">int getDaysRented()</text><ellipse cx="271.5" cy="332.3438" fill="#84BE84" rx="3" ry="3" style="stroke:#038048;stroke-width:1.0;"/><text fill="#000000" font-family="sans-serif" font-size="11" lengthAdjust="spacing" textLength="82" x="280.5" y="336.7627">Movie getMovie()</text><ellipse cx="271.5" cy="346.1797" fill="#84BE84" rx="3" ry="3" style="stroke:#038048;stroke-width:1.0;"/><text fill="#000000" font-family="sans-serif" font-size="11" lengthAdjust="spacing" textLength="93" x="280.5" y="350.5986">double getCharge()</text><ellipse cx="271.5" cy="360.0156" fill="#84BE84" rx="3" ry="3" style="stroke:#038048;stroke-width:1.0;"/><text fill="#000000" font-family="sans-serif" font-size="11" lengthAdjust="spacing" textLength="141" x="280.5" y="364.4346">int getFrequentRenterPoints()</text><!--MD5=[e69084ab16b022bdbef99762ea85e9d6]
class Movie--><rect codeLine="23" fill="#FEFECE" filter="url(#f14iqy9o5a7u2f)" height="186.3594" id="Movie" style="stroke:#A80036;stroke-width:1.5;" width="239" x="241.5" y="431"/><ellipse cx="341.25" cy="447" fill="#ADD1B2" rx="11" ry="11" style="stroke:#A80036;stroke-width:1.0;"/><path d="M344.0156,442.875 Q344.1719,442.6563 344.3594,442.5469 Q344.5469,442.4375 344.7656,442.4375 Q345.1406,442.4375 345.375,442.7031 Q345.6094,442.9531 345.6094,443.5625 L345.6094,445.0156 Q345.6094,445.625 345.375,445.8906 Q345.1406,446.1563 344.7656,446.1563 Q344.4219,446.1563 344.2188,445.9531 Q344.0156,445.7656 343.9063,445.25 Q343.8594,444.8906 343.6719,444.7031 Q343.3438,444.3281 342.7344,444.1094 Q342.125,443.8906 341.5,443.8906 Q340.7344,443.8906 340.0938,444.2188 Q339.4688,444.5469 338.9688,445.2969 Q338.4844,446.0469 338.4844,447.0781 L338.4844,448.1719 Q338.4844,449.4063 339.375,450.2344 Q340.2656,451.0469 341.8594,451.0469 Q342.7969,451.0469 343.4531,450.7969 Q343.8438,450.6406 344.2656,450.2031 Q344.5313,449.9375 344.6719,449.8594 Q344.8281,449.7813 345.0313,449.7813 Q345.3594,449.7813 345.6094,450.0469 Q345.875,450.2969 345.875,450.6406 Q345.875,450.9844 345.5313,451.3906 Q345.0313,451.9688 344.2344,452.2969 Q343.1563,452.75 341.8594,452.75 Q340.3438,452.75 339.1406,452.125 Q338.1563,451.625 337.4688,450.5625 Q336.7813,449.4844 336.7813,448.2031 L336.7813,447.0469 Q336.7813,445.7188 337.3906,444.5781 Q338.0156,443.4219 339.1094,442.8125 Q340.2031,442.1875 341.4375,442.1875 Q342.1719,442.1875 342.8125,442.3594 Q343.4688,442.5156 344.0156,442.875 Z " fill="#000000"/><text fill="#000000" font-family="sans-serif" font-size="12" lengthAdjust="spacing" textLength="31" x="361.75" y="451.9102">Movie</text><line style="stroke:#A80036;stroke-width:1.5;" x1="242.5" x2="479.5" y1="463" y2="463"/><ellipse cx="252.5" cy="474" fill="none" rx="3" ry="3" style="stroke:#038048;stroke-width:1.0;"/><text fill="#000000" font-family="sans-serif" font-size="11" lengthAdjust="spacing" textLength="136" x="261.5" y="478.4189">static final int REGULAR = 0;</text><ellipse cx="252.5" cy="487.8359" fill="none" rx="3" ry="3" style="stroke:#038048;stroke-width:1.0;"/><text fill="#000000" font-family="sans-serif" font-size="11" lengthAdjust="spacing" textLength="162" x="261.5" y="492.2549">static final int NEW_RELEASE = 1;</text><ellipse cx="252.5" cy="501.6719" fill="none" rx="3" ry="3" style="stroke:#038048;stroke-width:1.0;"/><text fill="#000000" font-family="sans-serif" font-size="11" lengthAdjust="spacing" textLength="143" x="261.5" y="506.0908">static final int CHILDRENS = 2;</text><rect fill="none" height="6" style="stroke:#C82930;stroke-width:1.0;" width="6" x="249.5" y="512.5078"/><text fill="#000000" font-family="sans-serif" font-size="11" lengthAdjust="spacing" textLength="50" x="261.5" y="519.9268">String title;</text><rect fill="none" height="6" style="stroke:#C82930;stroke-width:1.0;" width="6" x="249.5" y="526.3438"/><text fill="#000000" font-family="sans-serif" font-size="11" lengthAdjust="spacing" textLength="54" x="261.5" y="533.7627">Price price;</text><line style="stroke:#A80036;stroke-width:1.5;" x1="242.5" x2="479.5" y1="540.1797" y2="540.1797"/><ellipse cx="252.5" cy="551.1797" fill="#84BE84" rx="3" ry="3" style="stroke:#038048;stroke-width:1.0;"/><text fill="#000000" font-family="sans-serif" font-size="11" lengthAdjust="spacing" textLength="152" x="261.5" y="555.5986">Movie(String title, int priceCode)</text><ellipse cx="252.5" cy="565.0156" fill="#84BE84" rx="3" ry="3" style="stroke:#038048;stroke-width:1.0;"/><text fill="#000000" font-family="sans-serif" font-size="11" lengthAdjust="spacing" textLength="165" x="261.5" y="569.4346">double getCharge(int daysRented)</text><ellipse cx="252.5" cy="578.8516" fill="#84BE84" rx="3" ry="3" style="stroke:#038048;stroke-width:1.0;"/><text fill="#000000" font-family="sans-serif" font-size="11" lengthAdjust="spacing" textLength="213" x="261.5" y="583.2705">int getFrequentRenterPoints(int daysRented)</text><ellipse cx="252.5" cy="592.6875" fill="#84BE84" rx="3" ry="3" style="stroke:#038048;stroke-width:1.0;"/><text fill="#000000" font-family="sans-serif" font-size="11" lengthAdjust="spacing" textLength="158" x="261.5" y="597.1064">void setPriceCode(int priceCode)</text><ellipse cx="252.5" cy="606.5234" fill="#84BE84" rx="3" ry="3" style="stroke:#038048;stroke-width:1.0;"/><text fill="#000000" font-family="sans-serif" font-size="11" lengthAdjust="spacing" textLength="73" x="261.5" y="610.9424">String getTitle()</text><!--MD5=[a40a7ac4b423335b0d34bf16cf36e547]
class Price--><rect codeLine="36" fill="#FEFECE" filter="url(#f14iqy9o5a7u2f)" height="89.5078" id="Price" style="stroke:#A80036;stroke-width:1.5;" width="239" x="241.5" y="677"/><ellipse cx="342.75" cy="693" fill="#ADD1B2" rx="11" ry="11" style="stroke:#A80036;stroke-width:1.0;"/><path d="M345.5156,688.875 Q345.6719,688.6563 345.8594,688.5469 Q346.0469,688.4375 346.2656,688.4375 Q346.6406,688.4375 346.875,688.7031 Q347.1094,688.9531 347.1094,689.5625 L347.1094,691.0156 Q347.1094,691.625 346.875,691.8906 Q346.6406,692.1563 346.2656,692.1563 Q345.9219,692.1563 345.7188,691.9531 Q345.5156,691.7656 345.4063,691.25 Q345.3594,690.8906 345.1719,690.7031 Q344.8438,690.3281 344.2344,690.1094 Q343.625,689.8906 343,689.8906 Q342.2344,689.8906 341.5938,690.2188 Q340.9688,690.5469 340.4688,691.2969 Q339.9844,692.0469 339.9844,693.0781 L339.9844,694.1719 Q339.9844,695.4063 340.875,696.2344 Q341.7656,697.0469 343.3594,697.0469 Q344.2969,697.0469 344.9531,696.7969 Q345.3438,696.6406 345.7656,696.2031 Q346.0313,695.9375 346.1719,695.8594 Q346.3281,695.7813 346.5313,695.7813 Q346.8594,695.7813 347.1094,696.0469 Q347.375,696.2969 347.375,696.6406 Q347.375,696.9844 347.0313,697.3906 Q346.5313,697.9688 345.7344,698.2969 Q344.6563,698.75 343.3594,698.75 Q341.8438,698.75 340.6406,698.125 Q339.6563,697.625 338.9688,696.5625 Q338.2813,695.4844 338.2813,694.2031 L338.2813,693.0469 Q338.2813,691.7188 338.8906,690.5781 Q339.5156,689.4219 340.6094,688.8125 Q341.7031,688.1875 342.9375,688.1875 Q343.6719,688.1875 344.3125,688.3594 Q344.9688,688.5156 345.5156,688.875 Z " fill="#000000"/><text fill="#000000" font-family="sans-serif" font-size="12" lengthAdjust="spacing" textLength="28" x="363.25" y="697.9102">Price</text><line style="stroke:#A80036;stroke-width:1.5;" x1="242.5" x2="479.5" y1="709" y2="709"/><line style="stroke:#A80036;stroke-width:1.5;" x1="242.5" x2="479.5" y1="717" y2="717"/><ellipse cx="252.5" cy="728" fill="#84BE84" rx="3" ry="3" style="stroke:#038048;stroke-width:1.0;"/><text fill="#000000" font-family="sans-serif" font-size="11" lengthAdjust="spacing" textLength="86" x="261.5" y="732.4189">int getPriceCode()</text><ellipse cx="252.5" cy="741.8359" fill="#84BE84" rx="3" ry="3" style="stroke:#038048;stroke-width:1.0;"/><text fill="#000000" font-family="sans-serif" font-size="11" lengthAdjust="spacing" textLength="165" x="261.5" y="746.2549">double getCharge(int daysRented)</text><ellipse cx="252.5" cy="755.6719" fill="#84BE84" rx="3" ry="3" style="stroke:#038048;stroke-width:1.0;"/><text fill="#000000" font-family="sans-serif" font-size="11" lengthAdjust="spacing" textLength="213" x="261.5" y="760.0908">int getFrequentRenterPoints(int daysRented)</text><!--MD5=[2344beb72bdbdd7f341ff0709d123f49]
class RegularPrice--><rect codeLine="41" fill="#FEFECE" filter="url(#f14iqy9o5a7u2f)" height="103.3438" id="RegularPrice" style="stroke:#A80036;stroke-width:1.5;" width="220" x="7" y="834"/><ellipse cx="76.75" cy="850" fill="#ADD1B2" rx="11" ry="11" style="stroke:#A80036;stroke-width:1.0;"/><path d="M79.5156,845.875 Q79.6719,845.6563 79.8594,845.5469 Q80.0469,845.4375 80.2656,845.4375 Q80.6406,845.4375 80.875,845.7031 Q81.1094,845.9531 81.1094,846.5625 L81.1094,848.0156 Q81.1094,848.625 80.875,848.8906 Q80.6406,849.1563 80.2656,849.1563 Q79.9219,849.1563 79.7188,848.9531 Q79.5156,848.7656 79.4063,848.25 Q79.3594,847.8906 79.1719,847.7031 Q78.8438,847.3281 78.2344,847.1094 Q77.625,846.8906 77,846.8906 Q76.2344,846.8906 75.5938,847.2188 Q74.9688,847.5469 74.4688,848.2969 Q73.9844,849.0469 73.9844,850.0781 L73.9844,851.1719 Q73.9844,852.4063 74.875,853.2344 Q75.7656,854.0469 77.3594,854.0469 Q78.2969,854.0469 78.9531,853.7969 Q79.3438,853.6406 79.7656,853.2031 Q80.0313,852.9375 80.1719,852.8594 Q80.3281,852.7813 80.5313,852.7813 Q80.8594,852.7813 81.1094,853.0469 Q81.375,853.2969 81.375,853.6406 Q81.375,853.9844 81.0313,854.3906 Q80.5313,854.9688 79.7344,855.2969 Q78.6563,855.75 77.3594,855.75 Q75.8438,855.75 74.6406,855.125 Q73.6563,854.625 72.9688,853.5625 Q72.2813,852.4844 72.2813,851.2031 L72.2813,850.0469 Q72.2813,848.7188 72.8906,847.5781 Q73.5156,846.4219 74.6094,845.8125 Q75.7031,845.1875 76.9375,845.1875 Q77.6719,845.1875 78.3125,845.3594 Q78.9688,845.5156 79.5156,845.875 Z " fill="#000000"/><text fill="#000000" font-family="sans-serif" font-size="12" lengthAdjust="spacing" textLength="72" x="97.25" y="854.9102">RegularPrice</text><line style="stroke:#A80036;stroke-width:1.5;" x1="8" x2="226" y1="866" y2="866"/><rect fill="none" height="6" style="stroke:#C82930;stroke-width:1.0;" width="6" x="15" y="874"/><text fill="#000000" font-family="sans-serif" font-size="11" lengthAdjust="spacing" text-decoration="underline" textLength="108" x="27" y="881.4189">double CHARGE = 2.0;</text><rect fill="none" height="6" style="stroke:#C82930;stroke-width:1.0;" width="6" x="15" y="887.8359"/><text fill="#000000" font-family="sans-serif" font-size="11" lengthAdjust="spacing" text-decoration="underline" textLength="145" x="27" y="895.2549">double EXTRA CHARGE = 1.5;</text><rect fill="none" height="6" style="stroke:#C82930;stroke-width:1.0;" width="6" x="15" y="901.6719"/><text fill="#000000" font-family="sans-serif" font-size="11" lengthAdjust="spacing" text-decoration="underline" textLength="194" x="27" y="909.0908">final int DAYS RENTED THRESHOLD = 2;</text><line style="stroke:#A80036;stroke-width:1.5;" x1="8" x2="226" y1="915.5078" y2="915.5078"/><ellipse cx="18" cy="926.5078" fill="#84BE84" rx="3" ry="3" style="stroke:#038048;stroke-width:1.0;"/><text fill="#000000" font-family="sans-serif" font-size="11" lengthAdjust="spacing" textLength="165" x="27" y="930.9268">double getCharge(int daysRented)</text><!--MD5=[4d6c3fd5e1ff06fac9813d8657dd86db]
class ChildrenPrice--><rect codeLine="47" fill="#FEFECE" filter="url(#f14iqy9o5a7u2f)" height="103.3438" id="ChildrenPrice" style="stroke:#A80036;stroke-width:1.5;" width="197" x="262.5" y="834"/><ellipse cx="319.25" cy="850" fill="#ADD1B2" rx="11" ry="11" style="stroke:#A80036;stroke-width:1.0;"/><path d="M322.0156,845.875 Q322.1719,845.6563 322.3594,845.5469 Q322.5469,845.4375 322.7656,845.4375 Q323.1406,845.4375 323.375,845.7031 Q323.6094,845.9531 323.6094,846.5625 L323.6094,848.0156 Q323.6094,848.625 323.375,848.8906 Q323.1406,849.1563 322.7656,849.1563 Q322.4219,849.1563 322.2188,848.9531 Q322.0156,848.7656 321.9063,848.25 Q321.8594,847.8906 321.6719,847.7031 Q321.3438,847.3281 320.7344,847.1094 Q320.125,846.8906 319.5,846.8906 Q318.7344,846.8906 318.0938,847.2188 Q317.4688,847.5469 316.9688,848.2969 Q316.4844,849.0469 316.4844,850.0781 L316.4844,851.1719 Q316.4844,852.4063 317.375,853.2344 Q318.2656,854.0469 319.8594,854.0469 Q320.7969,854.0469 321.4531,853.7969 Q321.8438,853.6406 322.2656,853.2031 Q322.5313,852.9375 322.6719,852.8594 Q322.8281,852.7813 323.0313,852.7813 Q323.3594,852.7813 323.6094,853.0469 Q323.875,853.2969 323.875,853.6406 Q323.875,853.9844 323.5313,854.3906 Q323.0313,854.9688 322.2344,855.2969 Q321.1563,855.75 319.8594,855.75 Q318.3438,855.75 317.1406,855.125 Q316.1563,854.625 315.4688,853.5625 Q314.7813,852.4844 314.7813,851.2031 L314.7813,850.0469 Q314.7813,848.7188 315.3906,847.5781 Q316.0156,846.4219 317.1094,845.8125 Q318.2031,845.1875 319.4375,845.1875 Q320.1719,845.1875 320.8125,845.3594 Q321.4688,845.5156 322.0156,845.875 Z " fill="#000000"/><text fill="#000000" font-family="sans-serif" font-size="12" lengthAdjust="spacing" textLength="75" x="339.75" y="854.9102">ChildrenPrice</text><line style="stroke:#A80036;stroke-width:1.5;" x1="263.5" x2="458.5" y1="866" y2="866"/><rect fill="none" height="6" style="stroke:#C82930;stroke-width:1.0;" width="6" x="270.5" y="874"/><text fill="#000000" font-family="sans-serif" font-size="11" lengthAdjust="spacing" text-decoration="underline" textLength="108" x="282.5" y="881.4189">double CHARGE = 1.5;</text><rect fill="none" height="6" style="stroke:#C82930;stroke-width:1.0;" width="6" x="270.5" y="887.8359"/><text fill="#000000" font-family="sans-serif" font-size="11" lengthAdjust="spacing" text-decoration="underline" textLength="145" x="282.5" y="895.2549">double EXTRA CHARGE = 1.5;</text><rect fill="none" height="6" style="stroke:#C82930;stroke-width:1.0;" width="6" x="270.5" y="901.6719"/><text fill="#000000" font-family="sans-serif" font-size="11" lengthAdjust="spacing" text-decoration="underline" textLength="171" x="282.5" y="909.0908">int DAYS RENTED THRESHOLD = 3;</text><line style="stroke:#A80036;stroke-width:1.5;" x1="263.5" x2="458.5" y1="915.5078" y2="915.5078"/><ellipse cx="273.5" cy="926.5078" fill="#84BE84" rx="3" ry="3" style="stroke:#038048;stroke-width:1.0;"/><text fill="#000000" font-family="sans-serif" font-size="11" lengthAdjust="spacing" textLength="165" x="282.5" y="930.9268">double getCharge(int daysRented)</text><!--MD5=[b47ebc111c8d62c1ab4e3accd85c4dbd]
class NewReleasePrice--><rect codeLine="53" fill="#FEFECE" filter="url(#f14iqy9o5a7u2f)" height="117.1797" id="NewReleasePrice" style="stroke:#A80036;stroke-width:1.5;" width="239" x="494.5" y="827"/><ellipse cx="559.75" cy="843" fill="#ADD1B2" rx="11" ry="11" style="stroke:#A80036;stroke-width:1.0;"/><path d="M562.5156,838.875 Q562.6719,838.6563 562.8594,838.5469 Q563.0469,838.4375 563.2656,838.4375 Q563.6406,838.4375 563.875,838.7031 Q564.1094,838.9531 564.1094,839.5625 L564.1094,841.0156 Q564.1094,841.625 563.875,841.8906 Q563.6406,842.1563 563.2656,842.1563 Q562.9219,842.1563 562.7188,841.9531 Q562.5156,841.7656 562.4063,841.25 Q562.3594,840.8906 562.1719,840.7031 Q561.8438,840.3281 561.2344,840.1094 Q560.625,839.8906 560,839.8906 Q559.2344,839.8906 558.5938,840.2188 Q557.9688,840.5469 557.4688,841.2969 Q556.9844,842.0469 556.9844,843.0781 L556.9844,844.1719 Q556.9844,845.4063 557.875,846.2344 Q558.7656,847.0469 560.3594,847.0469 Q561.2969,847.0469 561.9531,846.7969 Q562.3438,846.6406 562.7656,846.2031 Q563.0313,845.9375 563.1719,845.8594 Q563.3281,845.7813 563.5313,845.7813 Q563.8594,845.7813 564.1094,846.0469 Q564.375,846.2969 564.375,846.6406 Q564.375,846.9844 564.0313,847.3906 Q563.5313,847.9688 562.7344,848.2969 Q561.6563,848.75 560.3594,848.75 Q558.8438,848.75 557.6406,848.125 Q556.6563,847.625 555.9688,846.5625 Q555.2813,845.4844 555.2813,844.2031 L555.2813,843.0469 Q555.2813,841.7188 555.8906,840.5781 Q556.5156,839.4219 557.6094,838.8125 Q558.7031,838.1875 559.9375,838.1875 Q560.6719,838.1875 561.3125,838.3594 Q561.9688,838.5156 562.5156,838.875 Z " fill="#000000"/><text fill="#000000" font-family="sans-serif" font-size="12" lengthAdjust="spacing" textLength="100" x="580.25" y="847.9102">NewReleasePrice</text><line style="stroke:#A80036;stroke-width:1.5;" x1="495.5" x2="732.5" y1="859" y2="859"/><rect fill="none" height="6" style="stroke:#C82930;stroke-width:1.0;" width="6" x="502.5" y="867"/><text fill="#000000" font-family="sans-serif" font-size="11" lengthAdjust="spacing" text-decoration="underline" textLength="99" x="514.5" y="874.4189">double CHARGE = 3;</text><rect fill="none" height="6" style="stroke:#C82930;stroke-width:1.0;" width="6" x="502.5" y="880.8359"/><text fill="#000000" font-family="sans-serif" font-size="11" lengthAdjust="spacing" text-decoration="underline" textLength="136" x="514.5" y="888.2549">double EXTRA CHARGE = 1;</text><rect fill="none" height="6" style="stroke:#C82930;stroke-width:1.0;" width="6" x="502.5" y="894.6719"/><text fill="#000000" font-family="sans-serif" font-size="11" lengthAdjust="spacing" text-decoration="underline" textLength="171" x="514.5" y="902.0908">int DAYS RENTED THRESHOLD = 2;</text><line style="stroke:#A80036;stroke-width:1.5;" x1="495.5" x2="732.5" y1="908.5078" y2="908.5078"/><ellipse cx="505.5" cy="919.5078" fill="#84BE84" rx="3" ry="3" style="stroke:#038048;stroke-width:1.0;"/><text fill="#000000" font-family="sans-serif" font-size="11" lengthAdjust="spacing" textLength="165" x="514.5" y="923.9268">double getCharge(int daysRented)</text><ellipse cx="505.5" cy="933.3438" fill="#84BE84" rx="3" ry="3" style="stroke:#038048;stroke-width:1.0;"/><text fill="#000000" font-family="sans-serif" font-size="11" lengthAdjust="spacing" textLength="213" x="514.5" y="937.7627">int getFrequentRenterPoints(int daysRented)</text><!--MD5=[f3878efad70c05db3650d422c897e41d]
link Customer to Rental--><path codeLine="61" d="M361,178.29 C361,178.29 361,201.92 361,212.8 " fill="none" id="Customer-Rental" style="stroke:#A80036;stroke-width:1.0;"/><polygon fill="#A80036" points="361,225.88,365,216.88,361,220.88,357,216.88,361,225.88" style="stroke:#A80036;stroke-width:1.0;"/><line style="stroke:#A80036;stroke-width:1.0;" x1="361" x2="361" y1="220.88" y2="212.88"/><polygon fill="#FFFFFF" points="361,166.29,357,172.29,361,178.29,365,172.29,361,166.29" style="stroke:#A80036;stroke-width:1.0;"/><!--MD5=[3ff2e791b45c1345dae11c9928fff133]
link Rental to Movie--><path codeLine="62" d="M361,371.14 C361,388.53 361,407.41 361,425.76 " fill="none" id="Rental-to-Movie" style="stroke:#A80036;stroke-width:1.0;"/><polygon fill="#A80036" points="361,430.93,365,421.93,361,425.93,357,421.93,361,430.93" style="stroke:#A80036;stroke-width:1.0;"/><!--MD5=[3b40980201cd791f7d29e52841ed6bc4]
reverse link Movie to Price--><path codeLine="63" d="M361,630.4 C361,646.76 361,662.84 361,676.81 " fill="none" id="Movie-backto-Price" style="stroke:#A80036;stroke-width:1.0;"/><polygon fill="#A80036" points="361,617.26,357,623.26,361,629.26,365,623.26,361,617.26" style="stroke:#A80036;stroke-width:1.0;"/><!--MD5=[85989d059ac8b4a74bbb6cc6bd724fbd]
reverse link Price to RegularPrice--><path codeLine="64" d="M277.37,778.35 C250.18,796.35 220.16,816.22 193.51,833.86 " fill="none" id="Price-backto-RegularPrice" style="stroke:#A80036;stroke-width:1.0;"/><polygon fill="none" points="273.78,772.33,294.33,767.13,281.51,784.01,273.78,772.33" style="stroke:#A80036;stroke-width:1.0;"/><!--MD5=[d9b14c662436a044e1d358e07c9ccaad]
reverse link Price to ChildrenPrice--><path codeLine="65" d="M361,787.18 C361,802.69 361,819.06 361,833.86 " fill="none" id="Price-backto-ChildrenPrice" style="stroke:#A80036;stroke-width:1.0;"/><polygon fill="none" points="354,787.13,361,767.13,368,787.13,354,787.13" style="stroke:#A80036;stroke-width:1.0;"/><!--MD5=[7c030624453ab1086e12de251d16fa87]
reverse link Price to NewReleasePrice--><path codeLine="66" d="M447.18,778.01 C471.81,793.73 498.71,810.9 523.58,826.78 " fill="none" id="Price-backto-NewReleasePrice" style="stroke:#A80036;stroke-width:1.0;"/><polygon fill="none" points="443.23,783.79,430.13,767.13,450.76,771.99,443.23,783.79" style="stroke:#A80036;stroke-width:1.0;"/><!--MD5=[eb68aeba47099ba5a8deee9b1536c37b]
@startuml movies

class Customer {
- String name;
- List<Rental> rentals;
+ Costumer(String name) 
+ void addRental(Rental rental)
+ String getName()
+ String statement()
- double getTotalCharge()
- int getTotalFrequentRenterPoints()
}

class Rental {
- Movie movie;
- int daysRented;
+ Rental(Movie movie, int daysRented)
+ int getDaysRented()
+ Movie getMovie()
+ double getCharge()
+ int getFrequentRenterPoints()
}

class Movie {
+ static final int REGULAR = 0;
+ static final int NEW_RELEASE = 1;
+ static final int CHILDRENS = 2;
- String title;
- Price price;
+ Movie(String title, int priceCode)
+ double getCharge(int daysRented)
+ int getFrequentRenterPoints(int daysRented)
+ void setPriceCode(int priceCode)
+ String getTitle()
}

class Price {
+ int getPriceCode()
+ double getCharge(int daysRented)
+ int getFrequentRenterPoints(int daysRented)
}
class RegularPrice {
{static}- double CHARGE = 2.0;
{static}- double EXTRA CHARGE = 1.5;
{static}- final int DAYS RENTED THRESHOLD = 2;
+ double getCharge(int daysRented)
}
class ChildrenPrice {
{static}- double CHARGE = 1.5;
{static}- double EXTRA CHARGE = 1.5;
{static}- int DAYS RENTED THRESHOLD = 3;
+ double getCharge(int daysRented)
}
class NewReleasePrice {
{static}- double CHARGE = 3;
{static}- double EXTRA CHARGE = 1;
{static}- int DAYS RENTED THRESHOLD = 2;
+ double getCharge(int daysRented)
+ int getFrequentRenterPoints(int daysRented)
}

Customer o-down-> Rental
Rental -down-> Movie
Movie *-down- Price
Price <|-down- RegularPrice
Price <|-down- ChildrenPrice
Price <|-down- NewReleasePrice

@enduml

PlantUML version 1.2021.00(Sun Jan 10 11:25:05 CET 2021)
(GPL source distribution)
Java Runtime: OpenJDK Runtime Environment
JVM: OpenJDK 64-Bit Server VM
Default Encoding: Cp1252
Language: es
Country: ES
--></g></svg>